<svg width="406" height="437" viewBox="0 0 406 437" fill="none" xmlns="http://www.w3.org/2000/svg">
<g clip-path="url(#clip0_11_3)">
<path d="M276.831 271.424C269.624 270.332 260.309 267.823 259.412 266.734C259.136 266.4 259.601 264.741 261.049 260.886C262.161 257.925 263.254 255.39 263.478 255.252C263.701 255.114 265.415 254.888 267.286 254.749C280.778 253.752 295.276 248.318 302.7 241.475C303.817 240.446 304.577 240.012 304.986 240.169C306.119 240.603 320.481 250.606 320.667 251.09C321.147 252.341 314.589 258.856 309.225 262.457C303.237 266.477 295.611 269.678 288.669 271.085C286.061 271.614 279.347 271.806 276.831 271.424ZM193.611 199.202C190.539 197.272 185.435 194.062 182.268 192.07C161.016 178.7 149.614 167.299 144.858 154.664C143.755 151.734 141.561 141.002 140.879 135.202C140.305 130.319 140.292 116.896 140.86 113.257C141.343 110.155 142.854 107.756 147.927 102.04C152.24 97.1808 157.865 92.6268 158.62 93.3825C158.696 93.458 158.605 94.1855 158.415 94.9989C157.638 98.3563 156.188 107.231 155.648 111.93C153.905 127.122 154.043 139.612 156.049 148.234C158.31 157.948 167.823 170.396 190.412 193.195C194.72 198.569 205.688 206.779 193.611 199.202ZM287.25 138.832C287.235 135.472 285.379 129.848 283.632 127.862C282.581 126.668 283.329 126.235 288.244 125.187C318.33 118.776 329.84 115.597 339.69 110.975C348.29 106.94 353.002 102.202 356.177 94.4028C357.56 91.0024 358.54 87.174 359.877 79.9431C360.461 76.7879 361.164 73.9806 361.44 73.7046C361.96 73.1851 390.396 63.1528 391.349 63.1528C391.644 63.1528 391.886 63.2315 391.886 63.3278C391.886 63.7836 385.221 80.771 382.971 86.0521C374.477 105.984 363.818 123.352 357.7 127.232C351.88 130.923 334.89 134.789 317.789 136.315C316.253 136.452 308.908 137.389 301.467 138.396C294.026 139.404 287.784 140.229 287.597 140.229C287.41 140.229 287.253 139.6 287.25 138.832Z" fill="#F012BE"/>
<path d="M319.711 229.547L311.021 223.545L311.271 222.213C311.732 219.755 311.526 210.104 310.928 206.134C308.822 192.157 302.085 178.245 288.931 160.708C285.567 156.222 285.697 156.472 286.126 155.345C286.326 154.818 286.648 153.115 286.841 151.56C287.034 150.005 287.282 148.643 287.392 148.534C287.641 148.284 294.539 151.95 298.937 154.67C303.271 157.35 310.768 162.956 312.922 165.128C315.286 167.511 320.529 174.104 322.734 177.463C331.299 190.518 334.453 207.008 331.584 223.73C330.789 228.363 328.986 235.55 328.619 235.549C328.5 235.548 324.49 232.847 319.711 229.547ZM240.612 110.906C240.474 110.641 240.78 84.0967 241.374 44.7217L241.644 26.849H251.884H262.123L261.996 56.916C261.886 82.9499 261.941 86.983 262.407 86.983C263.828 86.983 273.04 76.2514 280.624 65.7592C282.771 62.7898 286.647 57.428 289.238 53.8442C302.154 35.9783 310.622 26.693 321.384 18.5926C325.53 15.4723 327.09 14.6636 335.476 11.2861C347.362 6.49904 359.142 2.80782 367.99 1.09815C375.072 -0.270338 384.054 -0.374072 387.999 0.867239C389.445 1.3221 391.314 2.1917 392.154 2.79968C394.358 4.39664 397.608 8.58866 399.125 11.7914C401.719 17.2686 401.742 22.8697 399.205 31.5035C397.302 37.9784 395.22 44.6774 395.06 44.8372C394.982 44.9154 391.848 45.9548 388.096 47.147C384.344 48.3392 377.213 50.6145 372.248 52.2034C367.284 53.7923 363.127 54.9969 363.01 54.8804C362.894 54.7639 362.991 52.2629 363.229 49.3228C363.466 46.3827 363.602 42.1203 363.531 39.8509C363.411 36.0262 363.327 35.6271 362.381 34.3878C361.817 33.65 360.439 32.6002 359.306 32.0457C357.282 31.0557 357.168 31.0436 351.577 31.2302C344.987 31.4502 342.947 31.9382 336.066 34.9407L331.57 36.9025L299.879 70.2275C282.45 88.5563 266.743 105.037 264.976 106.851L261.764 110.15L259.709 109.484C255.271 108.045 247.05 108.518 242.621 110.468C240.758 111.288 240.805 111.278 240.612 110.906Z" fill="#FFC000"/>
<path d="M223.399 277.183C208.478 273.533 194.195 262.716 179.734 244.113C168.961 230.254 158.709 212.159 154.949 200.362C153.161 194.753 153.262 193.657 155.304 196.546C161.151 204.822 181.359 224.748 196.404 237.074C211.466 249.415 222.188 255.648 225.889 254.217C227.12 253.741 229.073 250.771 231.431 245.789C235.464 237.266 238.346 225.966 239.646 213.581C240.574 204.746 240.107 188.81 238.678 180.525C238.421 179.035 238.326 177.744 238.467 177.657C238.608 177.569 239.726 177.903 240.951 178.398C245.77 180.344 251.8 181.327 257.655 181.119L261.006 181.001L261.438 183.611C262.196 188.184 263.054 197.459 263.295 203.662C263.856 218.133 261.013 237.501 256.35 250.977C251.325 265.5 243.424 274.702 233.987 277.023C231.297 277.685 225.79 277.768 223.399 277.183ZM250.231 174.821C246.963 174.38 242.078 172.706 239.321 171.083C238.151 170.394 235.662 168.322 233.791 166.479C229.993 162.737 227.974 159.526 226.3 154.564C225.377 151.83 225.294 151.096 225.282 145.628C225.27 139.906 225.312 139.543 226.41 136.469C228.208 131.432 230.04 128.493 233.605 124.929C238.699 119.836 244.053 117.203 250.893 116.426C265.147 114.806 278.297 123.974 282.096 138.181C282.7 140.44 282.893 142.239 282.893 145.628C282.893 149.016 282.7 150.815 282.096 153.074C279.833 161.535 274.297 168.322 266.591 172.08C261.415 174.605 255.71 175.56 250.231 174.821Z" fill="#00B0F0"/>
<path d="M150.233 272.92C146.359 272.429 140.224 271.179 137.559 270.337C125.065 266.39 114.856 258.891 109.462 249.698C105.275 242.562 101.843 233.645 100.276 225.831C99.0845 219.894 99.0841 210.305 100.275 204.756C101.839 197.466 103.718 192.854 109.193 182.862C113.264 175.433 120.523 167.069 127.784 161.441C129.994 159.728 133 157.271 134.464 155.98C135.928 154.689 137.227 153.633 137.35 153.633C138.007 153.633 137.176 155.573 133.233 163.246C124.295 180.637 122.417 184.451 120.915 188.261C114.125 205.486 114.825 219.185 123.179 232.57C128.574 241.214 136.051 248.082 142.784 250.577C149.254 252.976 156.605 253.198 170.153 251.406C174.531 250.827 177.08 250.639 177.502 250.864C178.468 251.378 187.468 261.942 187.468 262.561C187.468 263.844 179.272 268.564 173.933 270.357C168.391 272.217 164.638 272.825 157.866 272.96C154.384 273.029 150.95 273.011 150.233 272.92ZM207.016 237.799C204.149 235.377 201.75 233.132 201.685 232.81C201.62 232.489 202.659 230.885 203.992 229.247C213.209 217.923 217.021 204.735 215.798 188.401C215.2 180.42 214.673 177.588 211.071 163.017C206.715 145.39 202.696 134.02 196.567 121.984C190.607 110.279 186.057 105.287 179.541 103.308C175.049 101.944 172.403 102.777 167.338 107.154C165.284 108.929 164.187 109.65 163.93 109.393C163.254 108.717 162.87 102.754 163.274 99.195C164.268 90.4125 168.329 84.1667 175.18 80.8825C177.394 79.821 177.917 79.7226 181.324 79.7265C184.52 79.7303 185.311 79.8603 186.909 80.6462C192.476 83.3832 200.276 94.7352 209.812 113.978C218.706 131.925 223.469 145.398 226.334 160.708C229.223 176.146 230.066 184.87 229.815 196.713C229.666 203.725 229.465 206.115 228.666 210.439C226.654 221.317 223.682 228.997 218.805 235.922C216.563 239.106 213.575 242.258 212.826 242.228C212.497 242.216 209.883 240.222 207.016 237.799ZM102.386 148.931C75.6266 147.727 52.8436 143.913 45.0957 139.341C42.4345 137.77 36.5296 131.722 34.3296 128.313C26.7775 116.612 20.6787 99.0357 12.2366 64.6422C10.3013 56.7578 7.90136 47.5422 6.90341 44.1632C4.24686 35.1681 4.10196 34.3944 4.11387 29.2693C4.1252 25.1786 4.24432 24.2858 5.11365 21.8967C6.40651 18.343 8.90739 14.6297 11.8818 11.8473C14.5108 9.388 16.689 8.36918 20.8772 7.63981C24.0298 7.09084 32.6369 7.38736 37.2257 8.20306C49.7428 10.4281 66.3363 15.9326 82.4658 23.2106C97.2234 29.8694 129.799 46.5436 144.627 55.0285C156.516 61.8314 159.091 63.7718 157.028 64.3729C156.67 64.4772 153.17 65.5022 149.251 66.6504C145.332 67.7986 141.697 68.738 141.173 68.738C140.649 68.738 135.98 67.1615 130.798 65.2346C125.616 63.3077 116.182 59.8043 109.833 57.4492C78.3749 45.7793 71.5363 43.2158 67.2213 41.4756C64.6494 40.4384 61.4561 39.2722 60.125 38.884C57.0524 37.9879 51.0662 37.6352 47.5068 38.1406C44.4991 38.5676 42.8506 39.5647 41.1858 41.9636L40.3054 43.2323L40.519 51.9824C41.1916 79.5226 47.5371 100.252 59.1769 112.932C68.1543 122.713 85.3041 127.134 125.286 129.976C134.795 130.652 135.572 130.765 135.861 131.519C135.984 131.837 136.084 134.256 136.084 136.893C136.084 139.53 136.273 142.958 136.503 144.51C136.734 146.062 136.814 147.442 136.68 147.576C136.546 147.709 135.226 148.045 133.747 148.321C131.101 148.815 109.257 149.24 102.386 148.931ZM179.039 72.4271C174.718 71.705 169.123 69.0282 165.579 65.9876C162.283 63.1603 159.965 60.1693 158.044 56.2644C155.615 51.3284 154.949 48.4428 154.949 42.86C154.949 37.2404 155.617 34.3692 158.088 29.37C161.172 23.1281 166.827 17.7673 173.061 15.1749C187.169 9.30794 203.456 15.2619 210.508 28.8638C213.133 33.9275 213.718 36.4763 213.718 42.86C213.718 47.6796 213.598 48.8261 212.845 51.2246C209.391 62.2243 201.021 69.9875 190.127 72.2967C187.427 72.8689 182.06 72.9321 179.039 72.4271Z" fill="#7030A0"/>
<path opacity="0.935644" d="M13.7038 357.244C11.373 357.244 9.27518 356.844 7.41051 356.045C5.54584 355.213 4.08081 354.047 3.01529 352.549C1.94976 351.051 1.41699 349.303 1.41699 347.305H7.5104C7.64369 348.803 8.22641 350.035 9.25852 351.001C10.324 351.966 11.8058 352.449 13.7038 352.449C15.6683 352.449 17.2001 351.983 18.2989 351.051C19.3977 350.085 19.947 348.853 19.947 347.355C19.947 346.189 19.5975 345.24 18.8982 344.508C18.2323 343.775 17.3831 343.209 16.3509 342.81C15.352 342.41 13.9535 341.977 12.1554 341.511C9.89121 340.912 8.04321 340.312 6.61142 339.713C5.21292 339.08 4.01422 338.115 3.01529 336.816C2.01636 335.517 1.51688 333.786 1.51688 331.622C1.51688 329.624 2.01636 327.876 3.01529 326.377C4.01422 324.879 5.41267 323.73 7.21074 322.931C9.00881 322.132 11.09 321.732 13.4541 321.732C16.8172 321.732 19.5642 322.581 21.6953 324.279C23.8596 325.944 25.0583 328.242 25.2914 331.172H18.9981C18.8983 329.907 18.299 328.825 17.2 327.925C16.1012 327.026 14.6527 326.577 12.8547 326.577C11.2231 326.577 9.89121 326.993 8.85897 327.826C7.82676 328.658 7.31062 329.857 7.31062 331.422C7.31062 332.487 7.62702 333.37 8.25966 334.069C8.92561 334.735 9.758 335.268 10.7569 335.667C11.7559 336.067 13.121 336.5 14.8525 336.966C17.15 337.598 19.0148 338.231 20.4466 338.864C21.9117 339.496 23.1437 340.479 24.1426 341.811C25.1748 343.109 25.691 344.857 25.691 347.055C25.691 348.82 25.2081 350.485 24.2425 352.05C23.3102 353.615 21.9283 354.88 20.097 355.846C18.2989 356.778 16.1678 357.244 13.7038 357.244Z" fill="black"/>
<path opacity="0.935644" d="M57.6567 342.46C57.6567 343.492 57.59 344.424 57.4567 345.257H36.4293C36.5958 347.455 37.4116 349.219 38.8766 350.551C40.3417 351.883 42.1398 352.549 44.2708 352.549C47.3342 352.549 49.4986 351.267 50.7639 348.703H56.9073C56.0749 351.234 54.5598 353.315 52.3622 354.947C50.1978 356.545 47.5007 357.344 44.2708 357.344C41.6403 357.344 39.2762 356.761 37.1784 355.596C35.114 354.397 33.4824 352.732 32.2837 350.601C31.1182 348.437 30.5356 345.94 30.5356 343.109C30.5356 340.279 31.1017 337.798 32.2338 335.667C33.3992 333.503 35.0141 331.838 37.0785 330.673C39.1763 329.507 41.5737 328.924 44.2708 328.924C46.868 328.924 49.1823 329.49 51.2135 330.623C53.2446 331.755 54.8262 333.353 55.9583 335.417C57.0904 337.449 57.6567 339.796 57.6567 342.46ZM51.713 340.662C51.6798 338.564 50.9306 336.883 49.4655 335.617C48.0004 334.352 46.1857 333.719 44.0213 333.719C42.0567 333.719 40.3752 334.352 38.9767 335.617C37.5782 336.849 36.7457 338.531 36.4793 340.662H51.713Z" fill="black"/>
<path opacity="0.935644" d="M66.1474 325.728C65.1151 325.728 64.2493 325.378 63.5501 324.679C62.8508 323.98 62.5012 323.114 62.5012 322.082C62.5012 321.05 62.8508 320.184 63.5501 319.485C64.2493 318.785 65.1151 318.436 66.1474 318.436C67.1463 318.436 67.9953 318.785 68.6946 319.485C69.3938 320.184 69.7435 321.05 69.7435 322.082C69.7435 323.114 69.3938 323.98 68.6946 324.679C67.9953 325.378 67.1463 325.728 66.1474 325.728ZM68.9443 362.289C68.9443 364.986 68.2617 366.934 66.8965 368.132C65.5646 369.364 63.6167 369.98 61.0528 369.98H58.106V365.186H60.0539C61.2193 365.186 62.035 364.952 62.5012 364.486C63.0007 364.053 63.2504 363.321 63.2504 362.289V329.374H68.9443V362.289Z" fill="black"/>
<path opacity="0.935644" d="M88.3736 357.344C85.7764 357.344 83.4289 356.761 81.3312 355.596C79.2334 354.397 77.5852 352.732 76.3864 350.601C75.1877 348.437 74.5884 345.94 74.5884 343.109C74.5884 340.312 75.2044 337.832 76.4364 335.667C77.6684 333.503 79.3499 331.838 81.481 330.673C83.612 329.507 85.9928 328.924 88.6233 328.924C91.2538 328.924 93.6346 329.507 95.7656 330.673C97.8967 331.838 99.5782 333.503 100.81 335.667C102.042 337.832 102.658 340.312 102.658 343.109C102.658 345.906 102.026 348.387 100.76 350.551C99.495 352.716 97.7635 354.397 95.5659 355.596C93.4015 356.761 91.0041 357.344 88.3736 357.344ZM88.3736 352.399C89.8387 352.399 91.2039 352.05 92.4692 351.35C93.7678 350.651 94.8167 349.602 95.6158 348.204C96.415 346.805 96.8146 345.107 96.8146 343.109C96.8146 341.111 96.4316 339.43 95.6658 338.065C94.8999 336.666 93.8843 335.617 92.619 334.918C91.3537 334.219 89.9885 333.869 88.5234 333.869C87.0583 333.869 85.6931 334.219 84.4277 334.918C83.1957 335.617 82.2135 336.666 81.481 338.065C80.7484 339.43 80.3821 341.111 80.3821 343.109C80.3821 346.073 81.1313 348.37 82.6297 350.002C84.1614 351.6 86.0761 352.399 88.3736 352.399Z" fill="black"/>
<path opacity="0.935644" d="M113.996 319.934V356.894H108.302V319.934H113.996Z" fill="black"/>
<path opacity="0.935644" d="M124.385 325.728C123.353 325.728 122.487 325.378 121.788 324.679C121.089 323.98 120.739 323.114 120.739 322.082C120.739 321.05 121.089 320.184 121.788 319.485C122.487 318.785 123.353 318.436 124.385 318.436C125.384 318.436 126.233 318.785 126.933 319.485C127.632 320.184 127.981 321.05 127.981 322.082C127.981 323.114 127.632 323.98 126.933 324.679C126.233 325.378 125.384 325.728 124.385 325.728ZM127.182 329.374V356.894H121.488V329.374H127.182Z" fill="black"/>
<path opacity="0.935644" d="M166.79 356.894L153.354 341.361V356.894H147.66V322.182H153.354V338.015L166.84 322.182H173.982L158.898 339.563L174.232 356.894H166.79Z" fill="black"/>
<path opacity="0.935644" d="M177.378 343.009C177.378 340.246 177.944 337.798 179.076 335.667C180.242 333.536 181.807 331.888 183.771 330.723C185.769 329.524 187.967 328.924 190.364 328.924C192.528 328.924 194.41 329.357 196.008 330.223C197.64 331.055 198.938 332.104 199.904 333.37V329.374H205.648V356.894H199.904V352.799C198.938 354.097 197.623 355.18 195.958 356.045C194.293 356.911 192.395 357.344 190.264 357.344C187.9 357.344 185.736 356.745 183.771 355.546C181.807 354.314 180.242 352.616 179.076 350.451C177.944 348.254 177.378 345.773 177.378 343.009ZM199.904 343.109C199.904 341.211 199.504 339.563 198.705 338.165C197.939 336.766 196.924 335.701 195.658 334.968C194.393 334.235 193.028 333.869 191.563 333.869C190.098 333.869 188.732 334.235 187.467 334.968C186.202 335.667 185.17 336.716 184.371 338.115C183.605 339.48 183.222 341.111 183.222 343.009C183.222 344.907 183.605 346.572 184.371 348.004C185.17 349.436 186.202 350.535 187.467 351.3C188.766 352.033 190.131 352.399 191.563 352.399C193.028 352.399 194.393 352.033 195.658 351.3C196.924 350.568 197.939 349.502 198.705 348.104C199.504 346.672 199.904 345.007 199.904 343.109Z" fill="black"/>
<path opacity="0.935644" d="M223.129 357.344C220.965 357.344 219.017 356.961 217.286 356.195C215.587 355.396 214.239 354.331 213.24 352.999C212.241 351.633 211.708 350.118 211.642 348.454H217.535C217.635 349.619 218.185 350.601 219.184 351.4C220.216 352.166 221.498 352.549 223.029 352.549C224.628 352.549 225.86 352.249 226.725 351.65C227.624 351.017 228.074 350.218 228.074 349.253C228.074 348.22 227.575 347.455 226.576 346.955C225.61 346.456 224.062 345.906 221.931 345.307C219.866 344.741 218.185 344.191 216.886 343.659C215.587 343.126 214.455 342.31 213.49 341.211C212.557 340.112 212.091 338.664 212.091 336.866C212.091 335.401 212.524 334.069 213.39 332.87C214.255 331.638 215.487 330.673 217.086 329.973C218.717 329.274 220.582 328.924 222.68 328.924C225.81 328.924 228.324 329.724 230.222 331.322C232.153 332.887 233.185 335.035 233.318 337.765H227.625C227.525 336.533 227.025 335.551 226.126 334.818C225.227 334.086 224.012 333.719 222.48 333.719C220.982 333.719 219.833 334.002 219.034 334.568C218.235 335.134 217.835 335.884 217.835 336.816C217.835 337.549 218.101 338.165 218.634 338.664C219.167 339.163 219.816 339.563 220.582 339.863C221.348 340.129 222.48 340.479 223.978 340.912C225.976 341.444 227.608 341.994 228.873 342.56C230.172 343.093 231.287 343.892 232.22 344.957C233.152 346.023 233.635 347.438 233.668 349.203C233.668 350.768 233.235 352.166 232.369 353.398C231.504 354.63 230.272 355.596 228.673 356.295C227.108 356.994 225.26 357.344 223.129 357.344Z" fill="black"/>
<path opacity="0.935644" d="M273.126 328.924C275.29 328.924 277.221 329.374 278.92 330.273C280.651 331.172 282 332.504 282.965 334.269C283.964 336.033 284.464 338.165 284.464 340.662V356.894H278.82V341.511C278.82 339.047 278.204 337.166 276.972 335.867C275.74 334.535 274.058 333.869 271.927 333.869C269.796 333.869 268.098 334.535 266.833 335.867C265.601 337.166 264.985 339.047 264.985 341.511V356.894H259.341V341.511C259.341 339.047 258.725 337.166 257.493 335.867C256.261 334.535 254.579 333.869 252.448 333.869C250.317 333.869 248.619 334.535 247.353 335.867C246.121 337.166 245.505 339.047 245.505 341.511V356.894H239.812V329.374H245.505V332.521C246.438 331.388 247.62 330.506 249.052 329.873C250.483 329.241 252.015 328.924 253.647 328.924C255.844 328.924 257.809 329.391 259.54 330.323C261.272 331.255 262.604 332.604 263.536 334.369C264.369 332.704 265.667 331.388 267.432 330.423C269.197 329.424 271.095 328.924 273.126 328.924Z" fill="black"/>
<path opacity="0.935644" d="M289.808 343.009C289.808 340.246 290.374 337.798 291.506 335.667C292.671 333.536 294.236 331.888 296.201 330.723C298.199 329.524 300.396 328.924 302.794 328.924C304.958 328.924 306.839 329.357 308.438 330.223C310.069 331.055 311.368 332.104 312.333 333.37V329.374H318.077V356.894H312.333V352.799C311.368 354.097 310.053 355.18 308.388 356.045C306.723 356.911 304.825 357.344 302.694 357.344C300.33 357.344 298.165 356.745 296.201 355.546C294.236 354.314 292.671 352.616 291.506 350.451C290.374 348.254 289.808 345.773 289.808 343.009ZM312.333 343.109C312.333 341.211 311.934 339.563 311.135 338.165C310.369 336.766 309.353 335.701 308.088 334.968C306.823 334.235 305.457 333.869 303.992 333.869C302.527 333.869 301.162 334.235 299.897 334.968C298.632 335.667 297.599 336.716 296.8 338.115C296.034 339.48 295.651 341.111 295.651 343.009C295.651 344.907 296.034 346.572 296.8 348.004C297.599 349.436 298.632 350.535 299.897 351.3C301.195 352.033 302.561 352.399 303.992 352.399C305.457 352.399 306.823 352.033 308.088 351.3C309.353 350.568 310.369 349.502 311.135 348.104C311.934 346.672 312.333 345.007 312.333 343.109Z" fill="black"/>
<path opacity="0.935644" d="M331.263 333.37C332.096 331.971 333.195 330.889 334.56 330.123C335.958 329.324 337.607 328.924 339.504 328.924V334.818H338.056C335.825 334.818 334.127 335.384 332.961 336.516C331.829 337.648 331.263 339.613 331.263 342.41V356.894H325.569V329.374H331.263V333.37Z" fill="black"/>
<path opacity="0.935644" d="M342.851 343.009C342.851 340.246 343.417 337.798 344.549 335.667C345.714 333.536 347.279 331.888 349.244 330.723C351.242 329.524 353.439 328.924 355.837 328.924C358.001 328.924 359.882 329.357 361.481 330.223C363.112 331.055 364.411 332.104 365.376 333.37V329.374H371.12V356.894H365.376V352.799C364.411 354.097 363.096 355.18 361.431 356.045C359.766 356.911 357.868 357.344 355.737 357.344C353.373 357.344 351.208 356.745 349.244 355.546C347.279 354.314 345.714 352.616 344.549 350.451C343.417 348.254 342.851 345.773 342.851 343.009ZM365.376 343.109C365.376 341.211 364.977 339.563 364.178 338.165C363.412 336.766 362.396 335.701 361.131 334.968C359.866 334.235 358.5 333.869 357.035 333.869C355.57 333.869 354.205 334.235 352.94 334.968C351.674 335.667 350.642 336.716 349.843 338.115C349.077 339.48 348.694 341.111 348.694 343.009C348.694 344.907 349.077 346.572 349.843 348.004C350.642 349.436 351.674 350.535 352.94 351.3C354.238 352.033 355.604 352.399 357.035 352.399C358.5 352.399 359.866 352.033 361.131 351.3C362.396 350.568 363.412 349.502 364.178 348.104C364.977 346.672 365.376 345.007 365.376 343.109Z" fill="black"/>
<path opacity="0.935644" d="M392.497 328.924C394.662 328.924 396.593 329.374 398.291 330.273C400.023 331.172 401.371 332.504 402.337 334.269C403.303 336.033 403.785 338.165 403.785 340.662V356.894H398.141V341.511C398.141 339.047 397.525 337.166 396.293 335.867C395.061 334.535 393.38 333.869 391.249 333.869C389.118 333.869 387.42 334.535 386.154 335.867C384.922 337.166 384.306 339.047 384.306 341.511V356.894H378.612V329.374H384.306V332.521C385.238 331.388 386.421 330.506 387.852 329.873C389.318 329.241 390.866 328.924 392.497 328.924Z" fill="black"/>
<path opacity="0.935644" d="M5.03399 404.963C4.07316 404.963 3.20975 404.796 2.44387 404.462C1.69192 404.114 1.1001 403.641 0.668407 403.042C0.236735 402.429 0.0139339 401.726 0 400.932H2.02621C2.09576 401.614 2.37418 402.192 2.86164 402.666C3.36295 403.125 4.08709 403.355 5.03399 403.355C5.93913 403.355 6.64936 403.132 7.16459 402.687C7.69374 402.227 7.95825 401.642 7.95825 400.932C7.95825 400.375 7.80507 399.923 7.49873 399.574C7.19236 399.226 6.80946 398.962 6.34993 398.781C5.89041 398.6 5.27077 398.405 4.49096 398.196C3.53013 397.945 2.75722 397.694 2.17235 397.444C1.60144 397.193 1.10716 396.803 0.689399 396.274C0.285569 395.731 0.083623 395.007 0.083623 394.102C0.083623 393.308 0.285569 392.605 0.689399 391.992C1.09323 391.379 1.65713 390.906 2.38124 390.572C3.11928 390.238 3.96171 390.07 4.90861 390.07C6.2733 390.07 7.38742 390.412 8.25076 391.094C9.12804 391.776 9.62229 392.681 9.73371 393.809H7.64499C7.57544 393.252 7.28299 392.765 6.76769 392.347C6.25244 391.916 5.57015 391.7 4.72072 391.7C3.92699 391.7 3.27944 391.909 2.77813 392.326C2.27684 392.73 2.02621 393.301 2.02621 394.039C2.02621 394.568 2.17233 395 2.46474 395.334C2.77111 395.668 3.14012 395.926 3.5718 396.107C4.0174 396.274 4.63713 396.469 5.43088 396.692C6.39171 396.956 7.16462 397.221 7.74949 397.486C8.33433 397.736 8.83555 398.133 9.25331 398.676C9.67105 399.205 9.87997 399.929 9.87997 400.849C9.87997 401.559 9.69202 402.227 9.31606 402.854C8.94007 403.48 8.38303 403.989 7.64499 404.379C6.90694 404.768 6.0366 404.963 5.03399 404.963Z" fill="black"/>
<path opacity="0.935644" d="M23.123 398.655C23.123 399.017 23.1021 399.4 23.0603 399.804H13.9115C13.981 400.932 14.3638 401.816 15.0601 402.457C15.7703 403.083 16.6268 403.397 17.6294 403.397C18.451 403.397 19.1334 403.209 19.6765 402.833C20.2335 402.443 20.6234 401.928 20.8462 401.287H22.8931C22.5868 402.387 21.9741 403.285 21.055 403.982C20.136 404.664 18.9941 405.005 17.6294 405.005C16.5432 405.005 15.5685 404.761 14.7051 404.274C13.8557 403.787 13.1873 403.097 12.6999 402.206C12.2125 401.301 11.9688 400.257 11.9688 399.073C11.9688 397.889 12.2056 396.852 12.679 395.961C13.1525 395.07 13.8139 394.387 14.6634 393.914C15.5267 393.426 16.5154 393.183 17.6294 393.183C18.7156 393.183 19.6764 393.419 20.5119 393.893C21.3474 394.366 21.988 395.021 22.4336 395.856C22.8932 396.678 23.123 397.611 23.123 398.655ZM21.1595 398.258C21.1595 397.534 20.9994 396.915 20.6791 396.399C20.3589 395.87 19.9202 395.473 19.3632 395.209C18.8201 394.93 18.2144 394.791 17.546 394.791C16.5851 394.791 15.7636 395.097 15.0813 395.71C14.4128 396.323 14.0298 397.172 13.9323 398.258H21.1595Z" fill="black"/>
<path opacity="0.935644" d="M32.0211 404.817L27.5302 399.762V404.817H25.6294V389.36H27.5302V398.446L31.9376 393.371H34.5903L29.2012 399.073L34.6112 404.817H32.0211Z" fill="black"/>
<path opacity="0.935644" d="M41.3787 405.005C40.3064 405.005 39.3317 404.761 38.4544 404.274C37.591 403.787 36.9087 403.097 36.4074 402.206C35.92 401.301 35.6763 400.257 35.6763 399.073C35.6763 397.903 35.927 396.873 36.4283 395.982C36.9435 395.077 37.6397 394.387 38.517 393.914C39.3943 393.426 40.376 393.183 41.4622 393.183C42.5483 393.183 43.5301 393.426 44.4074 393.914C45.2847 394.387 45.974 395.07 46.4753 395.961C46.9905 396.852 47.2482 397.889 47.2482 399.073C47.2482 400.257 46.9836 401.301 46.4544 402.206C45.9392 403.097 45.236 403.787 44.3448 404.274C43.4536 404.761 42.4648 405.005 41.3787 405.005ZM41.3787 403.334C42.061 403.334 42.7016 403.174 43.3004 402.854C43.8992 402.533 44.3795 402.053 44.7416 401.412C45.1176 400.772 45.3056 399.992 45.3056 399.073C45.3056 398.154 45.1245 397.374 44.7625 396.734C44.4004 396.093 43.927 395.62 43.3421 395.313C42.7573 394.993 42.1237 394.833 41.4413 394.833C40.7451 394.833 40.1046 394.993 39.5197 395.313C38.9488 395.62 38.4892 396.093 38.1411 396.734C37.793 397.374 37.6189 398.154 37.6189 399.073C37.6189 400.006 37.786 400.793 38.1201 401.433C38.4683 402.074 38.9279 402.554 39.4988 402.875C40.0697 403.181 40.6963 403.334 41.3787 403.334Z" fill="black"/>
<path opacity="0.935644" d="M51.6556 389.36V404.817H49.7549V389.36H51.6556Z" fill="black"/>
<path opacity="0.935644" d="M54.1831 399.052C54.1831 397.882 54.4198 396.859 54.8933 395.982C55.3667 395.09 56.0143 394.401 56.8359 393.914C57.6714 393.426 58.5973 393.183 59.6139 393.183C60.6165 393.183 61.4868 393.399 62.2249 393.83C62.9629 394.262 63.513 394.805 63.8751 395.459V393.371H65.7967V404.817H63.8751V402.687C63.4991 403.355 62.9351 403.912 62.1831 404.358C61.4451 404.789 60.5817 405.005 59.593 405.005C58.5765 405.005 57.6574 404.755 56.8359 404.253C56.0143 403.752 55.3667 403.049 54.8933 402.144C54.4198 401.238 54.1831 400.208 54.1831 399.052ZM63.8751 399.073C63.8751 398.21 63.7009 397.458 63.3528 396.817C63.0047 396.176 62.5313 395.689 61.9325 395.355C61.3476 395.007 60.7001 394.833 59.9899 394.833C59.2797 394.833 58.6321 395 58.0473 395.334C57.4624 395.668 56.996 396.156 56.6478 396.796C56.2997 397.437 56.1257 398.189 56.1257 399.052C56.1257 399.929 56.2997 400.695 56.6478 401.35C56.996 401.99 57.4624 402.485 58.0473 402.833C58.6321 403.167 59.2797 403.334 59.9899 403.334C60.7001 403.334 61.3476 403.167 61.9325 402.833C62.5313 402.485 63.0047 401.99 63.3528 401.35C63.7009 400.695 63.8751 399.936 63.8751 399.073Z" fill="black"/>
<path opacity="0.935644" d="M74.6947 393.162C75.558 393.162 76.3378 393.35 77.0341 393.726C77.7303 394.088 78.2734 394.638 78.6633 395.376C79.0671 396.114 79.2691 397.012 79.2691 398.07V404.817H77.3892V398.342C77.3892 397.2 77.1037 396.33 76.5328 395.731C75.9619 395.118 75.182 394.812 74.1933 394.812C73.1907 394.812 72.3901 395.125 71.7913 395.752C71.2064 396.379 70.9139 397.291 70.9139 398.488V404.817H69.0132V389.36H70.9139V395C71.2899 394.415 71.8052 393.963 72.4597 393.642C73.1281 393.322 73.8731 393.162 74.6947 393.162Z" fill="black"/>
<path opacity="0.935644" d="M95.2901 390.258V401.016C95.2901 402.213 94.921 403.174 94.183 403.898C93.445 404.608 92.4702 404.963 91.2587 404.963C90.0333 404.963 89.0516 404.601 88.3136 403.877C87.5756 403.139 87.2065 402.137 87.2065 400.869H89.1074C89.1225 401.58 89.3035 402.157 89.6504 402.603C90.0125 403.049 90.5485 403.271 91.2587 403.271C91.9689 403.271 92.4981 403.063 92.8462 402.645C93.1943 402.213 93.3685 401.67 93.3685 401.016V390.258H95.2901Z" fill="black"/>
<path opacity="0.935644" d="M109.473 398.655C109.473 399.017 109.452 399.4 109.41 399.804H100.261C100.331 400.932 100.714 401.816 101.41 402.457C102.12 403.083 102.977 403.397 103.979 403.397C104.801 403.397 105.483 403.209 106.026 402.833C106.583 402.443 106.973 401.928 107.196 401.287H109.243C108.937 402.387 108.324 403.285 107.405 403.982C106.486 404.664 105.344 405.005 103.979 405.005C102.893 405.005 101.919 404.761 101.055 404.274C100.206 403.787 99.5374 403.097 99.05 402.206C98.5626 401.301 98.3188 400.257 98.3188 399.073C98.3188 397.889 98.5556 396.852 99.0291 395.961C99.5026 395.07 100.164 394.387 101.013 393.914C101.877 393.426 102.865 393.183 103.979 393.183C105.066 393.183 106.026 393.419 106.862 393.893C107.698 394.366 108.338 395.021 108.784 395.856C109.243 396.678 109.473 397.611 109.473 398.655ZM107.51 398.258C107.51 397.534 107.349 396.915 107.029 396.399C106.709 395.87 106.27 395.473 105.713 395.209C105.17 394.93 104.564 394.791 103.896 394.791C102.935 394.791 102.114 395.097 101.431 395.71C100.763 396.323 100.38 397.172 100.282 398.258H107.51Z" fill="black"/>
<path opacity="0.935644" d="M113.88 389.36V404.817H111.979V389.36H113.88Z" fill="black"/>
<path opacity="0.935644" d="M116.408 399.052C116.408 397.882 116.644 396.859 117.118 395.982C117.591 395.09 118.239 394.401 119.06 393.914C119.896 393.426 120.822 393.183 121.839 393.183C122.841 393.183 123.711 393.399 124.449 393.83C125.188 394.262 125.738 394.805 126.1 395.459V393.371H128.021V404.817H126.1V402.687C125.724 403.355 125.16 403.912 124.408 404.358C123.67 404.789 122.806 405.005 121.818 405.005C120.801 405.005 119.882 404.755 119.06 404.253C118.239 403.752 117.591 403.049 117.118 402.144C116.644 401.238 116.408 400.208 116.408 399.052ZM126.1 399.073C126.1 398.21 125.926 397.458 125.578 396.817C125.229 396.176 124.756 395.689 124.157 395.355C123.572 395.007 122.925 394.833 122.214 394.833C121.504 394.833 120.857 395 120.272 395.334C119.687 395.668 119.221 396.156 118.872 396.796C118.524 397.437 118.35 398.189 118.35 399.052C118.35 399.929 118.524 400.695 118.872 401.35C119.221 401.99 119.687 402.485 120.272 402.833C120.857 403.167 121.504 403.334 122.214 403.334C122.925 403.334 123.572 403.167 124.157 402.833C124.756 402.485 125.229 401.99 125.578 401.35C125.926 400.695 126.1 399.936 126.1 399.073Z" fill="black"/>
<path opacity="0.935644" d="M136.815 393.162C138.208 393.162 139.336 393.587 140.199 394.436C141.063 395.271 141.494 396.483 141.494 398.07V404.817H139.614V398.342C139.614 397.2 139.329 396.33 138.758 395.731C138.187 395.118 137.407 394.812 136.419 394.812C135.416 394.812 134.615 395.125 134.016 395.752C133.432 396.379 133.139 397.291 133.139 398.488V404.817H131.238V393.371H133.139V395C133.515 394.415 134.023 393.963 134.664 393.642C135.318 393.322 136.035 393.162 136.815 393.162Z" fill="black"/>
<path opacity="0.935644" d="M149.327 393.183C150.316 393.183 151.179 393.399 151.917 393.83C152.669 394.262 153.226 394.805 153.588 395.459V393.371H155.51V405.068C155.51 406.112 155.287 407.038 154.841 407.846C154.396 408.667 153.755 409.308 152.92 409.768C152.098 410.227 151.137 410.457 150.037 410.457C148.533 410.457 147.28 410.102 146.277 409.392C145.275 408.681 144.683 407.714 144.502 406.488H146.382C146.591 407.184 147.022 407.741 147.677 408.159C148.331 408.591 149.118 408.807 150.037 408.807C151.081 408.807 151.931 408.479 152.585 407.825C153.254 407.171 153.588 406.251 153.588 405.068V402.666C153.212 403.334 152.655 403.891 151.917 404.337C151.179 404.782 150.316 405.005 149.327 405.005C148.31 405.005 147.384 404.755 146.549 404.253C145.727 403.752 145.08 403.049 144.606 402.144C144.133 401.238 143.896 400.208 143.896 399.052C143.896 397.882 144.133 396.859 144.606 395.982C145.08 395.09 145.727 394.401 146.549 393.914C147.384 393.426 148.31 393.183 149.327 393.183ZM153.588 399.073C153.588 398.21 153.414 397.458 153.066 396.817C152.718 396.177 152.244 395.689 151.645 395.355C151.06 395.007 150.413 394.833 149.703 394.833C148.993 394.833 148.345 395 147.76 395.334C147.175 395.668 146.709 396.156 146.361 396.796C146.013 397.437 145.839 398.189 145.839 399.052C145.839 399.929 146.013 400.695 146.361 401.35C146.709 401.99 147.175 402.485 147.76 402.833C148.345 403.167 148.993 403.334 149.703 403.334C150.413 403.334 151.06 403.167 151.645 402.833C152.244 402.485 152.718 401.99 153.066 401.35C153.414 400.695 153.588 399.936 153.588 399.073Z" fill="black"/>
<path opacity="0.935644" d="M166.204 403.271H171.301V404.817H164.304V390.258H166.204V403.271Z" fill="black"/>
<path opacity="0.935644" d="M172.617 399.052C172.617 397.882 172.853 396.859 173.327 395.982C173.8 395.09 174.448 394.401 175.269 393.914C176.105 393.426 177.031 393.183 178.047 393.183C179.05 393.183 179.92 393.399 180.658 393.83C181.397 394.262 181.947 394.805 182.309 395.459V393.371H184.23V404.817H182.309V402.687C181.933 403.355 181.369 403.912 180.617 404.358C179.879 404.789 179.015 405.005 178.027 405.005C177.01 405.005 176.091 404.755 175.269 404.253C174.448 403.752 173.8 403.049 173.327 402.144C172.853 401.238 172.617 400.208 172.617 399.052ZM182.309 399.073C182.309 398.21 182.135 397.458 181.786 396.817C181.438 396.176 180.965 395.689 180.366 395.355C179.781 395.007 179.134 394.833 178.423 394.833C177.713 394.833 177.066 395 176.481 395.334C175.896 395.668 175.43 396.156 175.081 396.796C174.733 397.437 174.559 398.189 174.559 399.052C174.559 399.929 174.733 400.695 175.081 401.35C175.43 401.99 175.896 402.485 176.481 402.833C177.066 403.167 177.713 403.334 178.423 403.334C179.134 403.334 179.781 403.167 180.366 402.833C180.965 402.485 181.438 401.99 181.786 401.35C182.135 400.695 182.309 399.936 182.309 399.073Z" fill="black"/>
<path opacity="0.935644" d="M193.129 393.162C193.992 393.162 194.772 393.35 195.468 393.726C196.164 394.088 196.708 394.638 197.097 395.376C197.501 396.114 197.703 397.012 197.703 398.07V404.817H195.823V398.342C195.823 397.2 195.538 396.33 194.967 395.731C194.396 395.118 193.616 394.812 192.627 394.812C191.625 394.812 190.824 395.125 190.225 395.752C189.641 396.379 189.348 397.291 189.348 398.488V404.817H187.447V389.36H189.348V395C189.724 394.415 190.239 393.963 190.894 393.642C191.562 393.322 192.307 393.162 193.129 393.162Z" fill="black"/>
<path opacity="0.935644" d="M201.797 391.512C201.435 391.512 201.129 391.386 200.878 391.136C200.627 390.885 200.502 390.579 200.502 390.217C200.502 389.855 200.627 389.548 200.878 389.298C201.129 389.047 201.435 388.922 201.797 388.922C202.145 388.922 202.438 389.047 202.674 389.298C202.925 389.548 203.05 389.855 203.05 390.217C203.05 390.579 202.925 390.885 202.674 391.136C202.437 391.386 202.145 391.512 201.797 391.512ZM202.716 393.371V404.817H200.815V393.371H202.716Z" fill="black"/>
<path opacity="0.935644" d="M207.854 395.23C208.189 394.575 208.662 394.067 209.275 393.705C209.901 393.343 210.66 393.162 211.552 393.162V395.125H211.05C208.92 395.125 207.854 396.281 207.854 398.593V404.817H205.954V393.371H207.854V395.23Z" fill="black"/>
<path opacity="0.935644" d="M213.035 399.052C213.035 397.882 213.271 396.859 213.745 395.982C214.218 395.09 214.866 394.401 215.687 393.914C216.523 393.426 217.449 393.183 218.466 393.183C219.468 393.183 220.339 393.399 221.077 393.83C221.815 394.262 222.365 394.805 222.727 395.459V393.371H224.648V404.817H222.727V402.687C222.351 403.355 221.787 403.912 221.035 404.358C220.297 404.789 219.433 405.005 218.445 405.005C217.428 405.005 216.509 404.755 215.687 404.253C214.866 403.752 214.218 403.049 213.745 402.144C213.271 401.238 213.035 400.208 213.035 399.052ZM222.727 399.073C222.727 398.21 222.553 397.458 222.204 396.817C221.856 396.176 221.383 395.689 220.784 395.355C220.199 395.007 219.552 394.833 218.842 394.833C218.131 394.833 217.484 395 216.899 395.334C216.314 395.668 215.848 396.156 215.499 396.796C215.151 397.437 214.977 398.189 214.977 399.052C214.977 399.929 215.151 400.695 215.499 401.35C215.848 401.99 216.314 402.485 216.899 402.833C217.484 403.167 218.131 403.334 218.842 403.334C219.552 403.334 220.199 403.167 220.784 402.833C221.383 402.485 221.856 401.99 222.204 401.35C222.553 400.695 222.727 399.936 222.727 399.073Z" fill="black"/>
<path opacity="0.935644" d="M233.442 393.162C234.834 393.162 235.962 393.587 236.826 394.436C237.689 395.271 238.121 396.483 238.121 398.07V404.817H236.241V398.342C236.241 397.2 235.955 396.33 235.384 395.731C234.813 395.118 234.034 394.812 233.045 394.812C232.042 394.812 231.242 395.125 230.643 395.752C230.058 396.379 229.766 397.291 229.766 398.488V404.817H227.865V393.371H229.766V395C230.142 394.415 230.65 393.963 231.29 393.642C231.945 393.322 232.662 393.162 233.442 393.162Z" fill="black"/>
<path opacity="0.935644" d="M254.706 404.817L248.711 398.175V404.817H246.81V390.258H248.711V397.005L254.727 390.258H257.129L250.528 397.548L257.191 404.817H254.706Z" fill="black"/>
<path opacity="0.935644" d="M269.766 398.655C269.766 399.017 269.745 399.4 269.703 399.804H260.554C260.624 400.932 261.007 401.816 261.703 402.457C262.413 403.083 263.27 403.397 264.272 403.397C265.094 403.397 265.776 403.209 266.319 402.833C266.876 402.443 267.266 401.928 267.489 401.287H269.536C269.23 402.387 268.617 403.285 267.698 403.982C266.779 404.664 265.637 405.005 264.272 405.005C263.186 405.005 262.211 404.761 261.348 404.274C260.499 403.787 259.83 403.097 259.343 402.206C258.855 401.301 258.612 400.257 258.612 399.073C258.612 397.889 258.849 396.852 259.322 395.961C259.795 395.07 260.457 394.387 261.306 393.914C262.17 393.426 263.158 393.183 264.272 393.183C265.359 393.183 266.319 393.419 267.155 393.893C267.99 394.366 268.631 395.021 269.077 395.856C269.536 396.678 269.766 397.611 269.766 398.655ZM267.802 398.258C267.802 397.534 267.642 396.915 267.322 396.399C267.002 395.87 266.563 395.473 266.006 395.209C265.463 394.93 264.857 394.791 264.189 394.791C263.228 394.791 262.406 395.097 261.724 395.71C261.056 396.323 260.673 397.172 260.575 398.258H267.802Z" fill="black"/>
<path opacity="0.935644" d="M274.173 389.36V404.817H272.272V389.36H274.173Z" fill="black"/>
<path opacity="0.935644" d="M287.563 393.371V404.817H285.662V403.125C285.3 403.71 284.791 404.17 284.137 404.504C283.496 404.824 282.786 404.984 282.006 404.984C281.115 404.984 280.314 404.803 279.604 404.441C278.894 404.065 278.33 403.508 277.912 402.77C277.509 402.032 277.307 401.134 277.307 400.076V393.371H279.186V399.825C279.186 400.953 279.472 401.823 280.043 402.436C280.614 403.035 281.394 403.334 282.382 403.334C283.399 403.334 284.2 403.021 284.784 402.394C285.369 401.767 285.662 400.855 285.662 399.658V393.371H287.563Z" fill="black"/>
<path opacity="0.935644" d="M290.069 399.052C290.069 397.882 290.306 396.859 290.779 395.982C291.253 395.09 291.9 394.401 292.722 393.914C293.557 393.426 294.483 393.183 295.5 393.183C296.502 393.183 297.373 393.399 298.111 393.83C298.849 394.262 299.399 394.805 299.761 395.459V393.371H301.683V404.817H299.761V402.687C299.385 403.355 298.821 403.912 298.069 404.358C297.331 404.789 296.468 405.005 295.479 405.005C294.462 405.005 293.543 404.755 292.722 404.253C291.9 403.752 291.253 403.049 290.779 402.144C290.306 401.238 290.069 400.208 290.069 399.052ZM299.761 399.073C299.761 398.21 299.587 397.458 299.239 396.817C298.891 396.176 298.417 395.689 297.818 395.355C297.233 395.007 296.586 394.833 295.876 394.833C295.166 394.833 294.518 395 293.933 395.334C293.348 395.668 292.882 396.156 292.534 396.796C292.185 397.437 292.011 398.189 292.011 399.052C292.011 399.929 292.185 400.695 292.534 401.35C292.882 401.99 293.348 402.485 293.933 402.833C294.518 403.167 295.166 403.334 295.876 403.334C296.586 403.334 297.233 403.167 297.818 402.833C298.417 402.485 298.891 401.99 299.239 401.35C299.587 400.695 299.761 399.936 299.761 399.073Z" fill="black"/>
<path opacity="0.935644" d="M306.8 395.23C307.134 394.575 307.608 394.067 308.22 393.705C308.847 393.343 309.606 393.162 310.497 393.162V395.125H309.996C307.865 395.125 306.8 396.281 306.8 398.593V404.817H304.899V393.371H306.8V395.23Z" fill="black"/>
<path opacity="0.935644" d="M317.411 393.183C318.4 393.183 319.263 393.399 320.001 393.83C320.753 394.262 321.31 394.805 321.672 395.459V393.371H323.594V405.068C323.594 406.112 323.371 407.038 322.925 407.846C322.48 408.667 321.839 409.308 321.004 409.768C320.182 410.227 319.221 410.457 318.121 410.457C316.617 410.457 315.364 410.102 314.361 409.392C313.359 408.681 312.767 407.714 312.586 406.488H314.466C314.675 407.184 315.106 407.741 315.761 408.159C316.415 408.591 317.202 408.807 318.121 408.807C319.165 408.807 320.015 408.479 320.669 407.825C321.338 407.171 321.672 406.251 321.672 405.068V402.666C321.296 403.334 320.739 403.891 320.001 404.337C319.263 404.782 318.4 405.005 317.411 405.005C316.394 405.005 315.468 404.755 314.633 404.253C313.811 403.752 313.164 403.049 312.69 402.144C312.217 401.238 311.98 400.208 311.98 399.052C311.98 397.882 312.217 396.859 312.69 395.982C313.164 395.09 313.811 394.401 314.633 393.914C315.468 393.426 316.394 393.183 317.411 393.183ZM321.672 399.073C321.672 398.21 321.498 397.458 321.15 396.817C320.802 396.177 320.328 395.689 319.729 395.355C319.144 395.007 318.497 394.833 317.787 394.833C317.077 394.833 316.429 395 315.844 395.334C315.259 395.668 314.793 396.156 314.445 396.796C314.097 397.437 313.923 398.189 313.923 399.052C313.923 399.929 314.097 400.695 314.445 401.35C314.793 401.99 315.259 402.485 315.844 402.833C316.429 403.167 317.077 403.334 317.787 403.334C318.497 403.334 319.144 403.167 319.729 402.833C320.328 402.485 320.802 401.99 321.15 401.35C321.498 400.695 321.672 399.936 321.672 399.073Z" fill="black"/>
<path opacity="0.935644" d="M326.1 399.052C326.1 397.882 326.337 396.859 326.81 395.982C327.284 395.09 327.931 394.401 328.753 393.914C329.588 393.426 330.514 393.183 331.531 393.183C332.534 393.183 333.404 393.399 334.142 393.83C334.88 394.262 335.43 394.805 335.792 395.459V393.371H337.714V404.817H335.792V402.687C335.416 403.355 334.852 403.912 334.1 404.358C333.362 404.789 332.499 405.005 331.51 405.005C330.493 405.005 329.574 404.755 328.753 404.253C327.931 403.752 327.284 403.049 326.81 402.144C326.337 401.238 326.1 400.208 326.1 399.052ZM335.792 399.073C335.792 398.21 335.618 397.458 335.27 396.817C334.922 396.176 334.448 395.689 333.849 395.355C333.265 395.007 332.617 394.833 331.907 394.833C331.197 394.833 330.549 395 329.964 395.334C329.38 395.668 328.913 396.156 328.565 396.796C328.217 397.437 328.043 398.189 328.043 399.052C328.043 399.929 328.217 400.695 328.565 401.35C328.913 401.99 329.38 402.485 329.964 402.833C330.549 403.167 331.197 403.334 331.907 403.334C332.617 403.334 333.265 403.167 333.849 402.833C334.448 402.485 334.922 401.99 335.27 401.35C335.618 400.695 335.792 399.936 335.792 399.073Z" fill="black"/>
<path opacity="0.935644" d="M351.124 404.963C350.163 404.963 349.3 404.796 348.534 404.462C347.782 404.114 347.19 403.641 346.758 403.042C346.327 402.429 346.104 401.726 346.09 400.932H348.116C348.186 401.614 348.464 402.192 348.951 402.666C349.453 403.125 350.177 403.355 351.124 403.355C352.029 403.355 352.739 403.132 353.254 402.687C353.784 402.227 354.048 401.642 354.048 400.932C354.048 400.375 353.895 399.923 353.589 399.574C353.282 399.226 352.899 398.962 352.44 398.781C351.98 398.6 351.361 398.405 350.581 398.196C349.62 397.945 348.847 397.694 348.262 397.444C347.691 397.193 347.197 396.803 346.779 396.274C346.375 395.731 346.173 395.007 346.173 394.102C346.173 393.308 346.375 392.605 346.779 391.992C347.183 391.379 347.747 390.906 348.471 390.572C349.209 390.238 350.052 390.07 350.998 390.07C352.363 390.07 353.477 390.412 354.341 391.094C355.218 391.776 355.712 392.681 355.824 393.809H353.735C353.665 393.252 353.373 392.765 352.858 392.347C352.342 391.916 351.66 391.7 350.811 391.7C350.017 391.7 349.369 391.909 348.868 392.326C348.367 392.73 348.116 393.301 348.116 394.039C348.116 394.568 348.262 395 348.555 395.334C348.861 395.668 349.23 395.926 349.662 396.107C350.107 396.274 350.727 396.469 351.521 396.692C352.482 396.956 353.254 397.221 353.839 397.486C354.424 397.736 354.925 398.133 355.343 398.676C355.761 399.205 355.97 399.929 355.97 400.849C355.97 401.559 355.782 402.227 355.406 402.854C355.03 403.48 354.473 403.989 353.735 404.379C352.997 404.768 352.126 404.963 351.124 404.963Z" fill="black"/>
<path opacity="0.935644" d="M369.213 398.655C369.213 399.017 369.192 399.4 369.15 399.804H360.001C360.071 400.932 360.454 401.816 361.15 402.457C361.86 403.083 362.717 403.397 363.719 403.397C364.541 403.397 365.223 403.209 365.766 402.833C366.323 402.443 366.713 401.928 366.936 401.287H368.983C368.677 402.387 368.064 403.285 367.145 403.982C366.226 404.664 365.084 405.005 363.719 405.005C362.633 405.005 361.658 404.761 360.795 404.274C359.946 403.787 359.277 403.097 358.79 402.206C358.302 401.301 358.059 400.257 358.059 399.073C358.059 397.889 358.295 396.852 358.769 395.961C359.242 395.07 359.904 394.387 360.753 393.914C361.617 393.426 362.605 393.183 363.719 393.183C364.805 393.183 365.766 393.419 366.602 393.893C367.437 394.366 368.078 395.021 368.523 395.856C368.983 396.678 369.213 397.611 369.213 398.655ZM367.249 398.258C367.249 397.534 367.089 396.915 366.769 396.399C366.449 395.87 366.01 395.473 365.453 395.209C364.91 394.93 364.304 394.791 363.636 394.791C362.675 394.791 361.853 395.097 361.171 395.71C360.503 396.323 360.12 397.172 360.022 398.258H367.249Z" fill="black"/>
<path opacity="0.935644" d="M377.401 393.162C378.264 393.162 379.044 393.35 379.74 393.726C380.436 394.088 380.98 394.638 381.369 395.376C381.773 396.114 381.975 397.012 381.975 398.07V404.817H380.095V398.342C380.095 397.2 379.81 396.33 379.239 395.731C378.668 395.118 377.888 394.812 376.899 394.812C375.897 394.812 375.096 395.125 374.497 395.752C373.912 396.379 373.62 397.291 373.62 398.488V404.817H371.719V389.36H373.62V395C373.996 394.415 374.511 393.963 375.166 393.642C375.834 393.322 376.579 393.162 377.401 393.162Z" fill="black"/>
<path opacity="0.935644" d="M384.377 399.052C384.377 397.882 384.614 396.859 385.087 395.982C385.561 395.09 386.208 394.401 387.03 393.914C387.865 393.426 388.791 393.183 389.808 393.183C390.81 393.183 391.681 393.399 392.419 393.83C393.157 394.262 393.707 394.805 394.069 395.459V393.371H395.991V404.817H394.069V402.687C393.693 403.355 393.129 403.912 392.377 404.358C391.639 404.789 390.776 405.005 389.787 405.005C388.77 405.005 387.851 404.755 387.03 404.253C386.208 403.752 385.561 403.049 385.087 402.144C384.614 401.238 384.377 400.208 384.377 399.052ZM394.069 399.073C394.069 398.21 393.895 397.458 393.547 396.817C393.199 396.176 392.725 395.689 392.126 395.355C391.541 395.007 390.894 394.833 390.184 394.833C389.474 394.833 388.826 395 388.241 395.334C387.656 395.668 387.19 396.156 386.842 396.796C386.494 397.437 386.319 398.189 386.319 399.052C386.319 399.929 386.494 400.695 386.842 401.35C387.19 401.99 387.656 402.485 388.241 402.833C388.826 403.167 389.474 403.334 390.184 403.334C390.894 403.334 391.541 403.167 392.126 402.833C392.725 402.485 393.199 401.99 393.547 401.35C393.895 400.695 394.069 399.936 394.069 399.073Z" fill="black"/>
<path opacity="0.935644" d="M401.526 394.937V401.684C401.526 402.241 401.645 402.638 401.881 402.875C402.118 403.097 402.529 403.209 403.114 403.209H404.513V404.817H402.801C401.742 404.817 400.948 404.574 400.419 404.086C399.89 403.599 399.626 402.798 399.626 401.684V394.937H398.143V393.371H399.626V390.488H401.526V393.371H404.513V394.937H401.526Z" fill="black"/>
<path opacity="0.935644" d="M53.3577 420.45C53.3577 421.662 52.94 422.671 52.1044 423.479C51.2828 424.273 50.0226 424.669 48.3238 424.669H45.5247V430.748H43.624V416.189H48.3238C49.9669 416.189 51.2132 416.586 52.0627 417.38C52.926 418.173 53.3577 419.197 53.3577 420.45ZM48.3238 423.103C49.3821 423.103 50.1619 422.873 50.6632 422.414C51.1645 421.954 51.4151 421.3 51.4151 420.45C51.4151 418.654 50.3847 417.756 48.3238 417.756H45.5247V423.103H48.3238Z" fill="black"/>
<path opacity="0.935644" d="M66.162 424.586C66.162 424.948 66.141 425.331 66.0992 425.735H56.9503C57.0198 426.863 57.4028 427.747 58.0992 428.387C58.8094 429.014 59.6657 429.327 60.6683 429.327C61.4899 429.327 62.1722 429.139 62.7153 428.763C63.2723 428.374 63.6623 427.858 63.8851 427.218H65.9321C65.6257 428.318 65.0131 429.216 64.094 429.912C63.1749 430.595 62.033 430.936 60.6683 430.936C59.5822 430.936 58.6074 430.692 57.7441 430.205C56.8946 429.717 56.2262 429.028 55.7389 428.137C55.2515 427.232 55.0078 426.187 55.0078 425.004C55.0078 423.82 55.2445 422.783 55.718 421.891C56.1914 421 56.8529 420.318 57.7023 419.844C58.5657 419.357 59.5543 419.113 60.6683 419.113C61.7545 419.113 62.7153 419.35 63.5509 419.823C64.3864 420.297 65.027 420.951 65.4726 421.787C65.9321 422.609 66.162 423.541 66.162 424.586ZM64.1985 424.189C64.1985 423.465 64.0384 422.845 63.7181 422.33C63.3978 421.801 62.9592 421.404 62.4022 421.139C61.8591 420.861 61.2533 420.722 60.5848 420.722C59.624 420.722 58.8024 421.028 58.1201 421.641C57.4517 422.253 57.0688 423.103 56.9713 424.189H64.1985Z" fill="black"/>
<path opacity="0.935644" d="M70.5698 421.16C70.904 420.506 71.3774 419.998 71.9901 419.635C72.6167 419.273 73.3757 419.092 74.267 419.092V421.056H73.7656C71.635 421.056 70.5698 422.212 70.5698 424.523V430.748H68.6689V419.301H70.5698V421.16Z" fill="black"/>
<path opacity="0.935644" d="M80.512 430.936C79.6347 430.936 78.8479 430.79 78.1516 430.497C77.4554 430.191 76.9053 429.773 76.5014 429.244C76.0976 428.701 75.8748 428.081 75.833 427.385H77.7965C77.8522 427.956 78.1168 428.422 78.5903 428.784C79.0776 429.146 79.7113 429.327 80.4911 429.327C81.2152 429.327 81.786 429.167 82.2038 428.847C82.6215 428.527 82.8305 428.123 82.8305 427.635C82.8305 427.134 82.6077 426.765 82.1621 426.528C81.7164 426.278 81.0272 426.034 80.0942 425.797C79.2448 425.575 78.5484 425.352 78.0054 425.129C77.4762 424.892 77.0167 424.551 76.6268 424.105C76.2508 423.646 76.0629 423.047 76.0629 422.309C76.0629 421.724 76.2369 421.188 76.585 420.701C76.9332 420.213 77.4276 419.83 78.0681 419.552C78.7087 419.259 79.4397 419.113 80.2612 419.113C81.5284 419.113 82.5519 419.434 83.3317 420.074C84.1116 420.715 84.5294 421.592 84.585 422.706H82.6842C82.6424 422.107 82.3987 421.627 81.9532 421.265C81.5215 420.903 80.9366 420.722 80.1986 420.722C79.5162 420.722 78.9732 420.868 78.5694 421.16C78.1656 421.453 77.9636 421.836 77.9636 422.309C77.9636 422.685 78.082 422.998 78.3189 423.249C78.5696 423.486 78.8759 423.681 79.2379 423.834C79.6139 423.973 80.1291 424.133 80.7836 424.314C81.6052 424.537 82.2736 424.76 82.7888 424.983C83.304 425.192 83.7427 425.512 84.1048 425.944C84.4807 426.375 84.6758 426.939 84.6897 427.635C84.6897 428.262 84.5155 428.826 84.1674 429.327C83.8193 429.829 83.325 430.226 82.6844 430.518C82.0578 430.797 81.3336 430.936 80.512 430.936Z" fill="black"/>
<path opacity="0.935644" d="M86.6528 424.983C86.6528 423.813 86.8895 422.79 87.363 421.912C87.8364 421.021 88.484 420.332 89.3056 419.844C90.1411 419.357 91.0672 419.113 92.0837 419.113C93.0863 419.113 93.9566 419.329 94.6946 419.761C95.4326 420.192 95.9827 420.736 96.3448 421.39V419.301H98.2665V430.748H96.3448V428.617C95.9688 429.286 95.4048 429.843 94.6528 430.288C93.9148 430.72 93.0515 430.936 92.0628 430.936C91.0463 430.936 90.1272 430.685 89.3056 430.184C88.484 429.683 87.8364 428.979 87.363 428.074C86.8895 427.169 86.6528 426.139 86.6528 424.983ZM96.3448 425.004C96.3448 424.14 96.1708 423.388 95.8226 422.748C95.4745 422.107 95.001 421.62 94.4022 421.286C93.8174 420.937 93.1698 420.763 92.4596 420.763C91.7494 420.763 91.102 420.93 90.5171 421.265C89.9323 421.599 89.4657 422.086 89.1176 422.727C88.7695 423.367 88.5954 424.119 88.5954 424.983C88.5954 425.86 88.7695 426.626 89.1176 427.28C89.4657 427.921 89.9323 428.415 90.5171 428.763C91.102 429.098 91.7494 429.265 92.4596 429.265C93.1698 429.265 93.8174 429.098 94.4022 428.763C95.001 428.415 95.4745 427.921 95.8226 427.28C96.1708 426.626 96.3448 425.867 96.3448 425.004Z" fill="black"/>
<path opacity="0.935644" d="M103.384 415.291V430.748H101.483V415.291H103.384Z" fill="black"/>
<path opacity="0.935644" d="M107.604 417.442C107.242 417.442 106.935 417.317 106.685 417.066C106.434 416.816 106.309 416.509 106.309 416.147C106.309 415.785 106.434 415.479 106.685 415.228C106.935 414.978 107.242 414.852 107.604 414.852C107.952 414.852 108.244 414.978 108.481 415.228C108.732 415.479 108.857 415.785 108.857 416.147C108.857 416.509 108.732 416.816 108.481 417.066C108.244 417.317 107.952 417.442 107.604 417.442ZM108.523 419.301V430.748H106.622V419.301H108.523Z" fill="black"/>
<path opacity="0.935644" d="M117.337 419.092C118.73 419.092 119.858 419.517 120.721 420.367C121.584 421.202 122.016 422.414 122.016 424.001V430.748H120.136V424.273C120.136 423.131 119.851 422.26 119.28 421.662C118.709 421.049 117.929 420.743 116.94 420.743C115.938 420.743 115.137 421.056 114.538 421.682C113.953 422.309 113.661 423.221 113.661 424.419V430.748H111.76V419.301H113.661V420.931C114.037 420.346 114.545 419.893 115.186 419.573C115.84 419.253 116.557 419.092 117.337 419.092Z" fill="black"/>
<path opacity="0.935644" d="M124.418 424.983C124.418 423.813 124.655 422.79 125.128 421.912C125.602 421.021 126.249 420.332 127.071 419.844C127.906 419.357 128.832 419.113 129.849 419.113C130.851 419.113 131.722 419.329 132.46 419.761C133.198 420.192 133.748 420.736 134.11 421.39V419.301H136.032V430.748H134.11V428.617C133.734 429.286 133.17 429.843 132.418 430.288C131.68 430.72 130.817 430.936 129.828 430.936C128.811 430.936 127.892 430.685 127.071 430.184C126.249 429.683 125.602 428.979 125.128 428.074C124.655 427.169 124.418 426.139 124.418 424.983ZM134.11 425.004C134.11 424.14 133.936 423.388 133.588 422.748C133.24 422.107 132.766 421.62 132.167 421.286C131.582 420.937 130.935 420.763 130.225 420.763C129.515 420.763 128.867 420.93 128.282 421.265C127.697 421.599 127.231 422.086 126.883 422.727C126.535 423.367 126.361 424.119 126.361 424.983C126.361 425.86 126.535 426.626 126.883 427.28C127.231 427.921 127.697 428.415 128.282 428.763C128.867 429.098 129.515 429.265 130.225 429.265C130.935 429.265 131.582 429.098 132.167 428.763C132.766 428.415 133.24 427.921 133.588 427.28C133.936 426.626 134.11 425.867 134.11 425.004Z" fill="black"/>
<path opacity="0.935644" d="M144.826 419.092C146.218 419.092 147.346 419.517 148.209 420.367C149.073 421.202 149.504 422.414 149.504 424.001V430.748H147.625V424.273C147.625 423.131 147.339 422.26 146.768 421.662C146.197 421.049 145.417 420.743 144.429 420.743C143.426 420.743 142.625 421.056 142.027 421.682C141.442 422.309 141.149 423.221 141.149 424.419V430.748H139.249V419.301H141.149V420.931C141.525 420.346 142.034 419.893 142.674 419.573C143.329 419.253 144.046 419.092 144.826 419.092Z" fill="black"/>
<path opacity="0.935644" d="M166.799 427.51H160.449L159.28 430.748H157.274L162.538 416.273H164.731L169.974 430.748H167.969L166.799 427.51ZM166.256 425.965L163.624 418.612L160.992 425.965H166.256Z" fill="black"/>
<path opacity="0.935644" d="M186.037 419.092C186.928 419.092 187.722 419.28 188.418 419.656C189.115 420.018 189.664 420.568 190.068 421.307C190.472 422.045 190.674 422.943 190.674 424.001V430.748H188.794V424.273C188.794 423.131 188.509 422.26 187.938 421.662C187.381 421.049 186.622 420.743 185.661 420.743C184.672 420.743 183.886 421.063 183.301 421.703C182.716 422.33 182.423 423.242 182.423 424.44V430.748H180.543V424.273C180.543 423.131 180.258 422.26 179.687 421.662C179.13 421.049 178.371 420.743 177.41 420.743C176.422 420.743 175.635 421.063 175.05 421.703C174.465 422.33 174.173 423.242 174.173 424.44V430.748H172.272V419.301H174.173V420.951C174.549 420.353 175.05 419.893 175.677 419.573C176.317 419.253 177.02 419.092 177.786 419.092C178.747 419.092 179.597 419.308 180.335 419.74C181.073 420.172 181.623 420.805 181.985 421.641C182.305 420.833 182.834 420.206 183.572 419.761C184.31 419.315 185.132 419.092 186.037 419.092Z" fill="black"/>
<path opacity="0.935644" d="M193.076 424.983C193.076 423.813 193.313 422.79 193.786 421.912C194.26 421.021 194.907 420.332 195.729 419.844C196.564 419.357 197.49 419.113 198.507 419.113C199.51 419.113 200.38 419.329 201.118 419.761C201.856 420.192 202.406 420.736 202.768 421.39V419.301H204.69V430.748H202.768V428.617C202.392 429.286 201.828 429.843 201.076 430.288C200.338 430.72 199.475 430.936 198.486 430.936C197.47 430.936 196.551 430.685 195.729 430.184C194.907 429.683 194.26 428.979 193.786 428.074C193.313 427.169 193.076 426.139 193.076 424.983ZM202.768 425.004C202.768 424.14 202.594 423.388 202.246 422.748C201.898 422.107 201.424 421.62 200.826 421.286C200.241 420.937 199.593 420.763 198.883 420.763C198.173 420.763 197.525 420.93 196.94 421.265C196.355 421.599 195.889 422.086 195.541 422.727C195.193 423.367 195.019 424.119 195.019 424.983C195.019 425.86 195.193 426.626 195.541 427.28C195.889 427.921 196.355 428.415 196.94 428.763C197.525 429.098 198.173 429.265 198.883 429.265C199.593 429.265 200.241 429.098 200.826 428.763C201.424 428.415 201.898 427.921 202.246 427.28C202.594 426.626 202.768 425.867 202.768 425.004Z" fill="black"/>
<path opacity="0.935644" d="M213.484 419.092C214.876 419.092 216.004 419.517 216.868 420.367C217.731 421.202 218.163 422.414 218.163 424.001V430.748H216.283V424.273C216.283 423.131 215.997 422.26 215.426 421.662C214.855 421.049 214.076 420.743 213.087 420.743C212.084 420.743 211.284 421.056 210.685 421.682C210.1 422.309 209.807 423.221 209.807 424.419V430.748H207.907V419.301H209.807V420.931C210.183 420.346 210.692 419.893 211.332 419.573C211.987 419.253 212.704 419.092 213.484 419.092Z" fill="black"/>
<path opacity="0.935644" d="M226.142 424.983C226.142 423.813 226.378 422.79 226.852 421.912C227.325 421.021 227.973 420.332 228.794 419.844C229.63 419.357 230.563 419.113 231.593 419.113C232.485 419.113 233.313 419.322 234.079 419.74C234.845 420.144 235.43 420.68 235.834 421.348V415.291H237.755V430.748H235.834V428.596C235.458 429.279 234.901 429.843 234.162 430.288C233.424 430.72 232.561 430.936 231.572 430.936C230.556 430.936 229.63 430.685 228.794 430.184C227.973 429.683 227.325 428.979 226.852 428.074C226.378 427.169 226.142 426.139 226.142 424.983ZM235.834 425.004C235.834 424.14 235.66 423.388 235.311 422.748C234.963 422.107 234.49 421.62 233.891 421.286C233.306 420.937 232.659 420.763 231.948 420.763C231.238 420.763 230.591 420.93 230.006 421.265C229.421 421.599 228.955 422.086 228.606 422.727C228.258 423.367 228.084 424.119 228.084 424.983C228.084 425.86 228.258 426.626 228.606 427.28C228.955 427.921 229.421 428.415 230.006 428.763C230.591 429.098 231.238 429.265 231.948 429.265C232.659 429.265 233.306 429.098 233.891 428.763C234.49 428.415 234.963 427.921 235.311 427.28C235.66 426.626 235.834 425.867 235.834 425.004Z" fill="black"/>
<path opacity="0.935644" d="M240.262 424.983C240.262 423.813 240.498 422.79 240.972 421.912C241.445 421.021 242.093 420.332 242.914 419.844C243.75 419.357 244.676 419.113 245.692 419.113C246.695 419.113 247.565 419.329 248.303 419.761C249.042 420.192 249.592 420.736 249.954 421.39V419.301H251.875V430.748H249.954V428.617C249.578 429.286 249.014 429.843 248.262 430.288C247.524 430.72 246.66 430.936 245.672 430.936C244.655 430.936 243.736 430.685 242.914 430.184C242.093 429.683 241.445 428.979 240.972 428.074C240.498 427.169 240.262 426.139 240.262 424.983ZM249.954 425.004C249.954 424.14 249.78 423.388 249.432 422.748C249.083 422.107 248.61 421.62 248.011 421.286C247.426 420.937 246.779 420.763 246.068 420.763C245.358 420.763 244.711 420.93 244.126 421.265C243.541 421.599 243.075 422.086 242.726 422.727C242.378 423.367 242.204 424.119 242.204 424.983C242.204 425.86 242.378 426.626 242.726 427.28C243.075 427.921 243.541 428.415 244.126 428.763C244.711 429.098 245.358 429.265 246.068 429.265C246.779 429.265 247.426 429.098 248.011 428.763C248.61 428.415 249.083 427.921 249.432 427.28C249.78 426.626 249.954 425.867 249.954 425.004Z" fill="black"/>
<path opacity="0.935644" d="M260.669 419.092C262.062 419.092 263.19 419.517 264.053 420.367C264.917 421.202 265.348 422.414 265.348 424.001V430.748H263.468V424.273C263.468 423.131 263.183 422.26 262.612 421.662C262.041 421.049 261.261 420.743 260.272 420.743C259.27 420.743 258.469 421.056 257.87 421.682C257.286 422.309 256.993 423.221 256.993 424.419V430.748H255.092V419.301H256.993V420.931C257.369 420.346 257.877 419.893 258.518 419.573C259.172 419.253 259.889 419.092 260.669 419.092Z" fill="black"/>
<path opacity="0.935644" d="M285.484 430.748H283.583L275.938 419.155V430.748H274.038V416.168H275.938L283.583 427.74V416.168H285.484V430.748Z" fill="black"/>
<path opacity="0.935644" d="M298.581 419.301L291.688 436.137H289.724L291.98 430.623L287.364 419.301H289.473L293.066 428.576L296.617 419.301H298.581Z" fill="black"/>
<path opacity="0.935644" d="M299.771 424.983C299.771 423.813 300.008 422.79 300.481 421.912C300.955 421.021 301.602 420.332 302.424 419.844C303.259 419.357 304.185 419.113 305.202 419.113C306.204 419.113 307.075 419.329 307.813 419.761C308.551 420.192 309.101 420.736 309.463 421.39V419.301H311.385V430.748H309.463V428.617C309.087 429.286 308.523 429.843 307.771 430.288C307.033 430.72 306.17 430.936 305.181 430.936C304.164 430.936 303.245 430.685 302.424 430.184C301.602 429.683 300.955 428.979 300.481 428.074C300.008 427.169 299.771 426.139 299.771 424.983ZM309.463 425.004C309.463 424.14 309.289 423.388 308.941 422.748C308.593 422.107 308.119 421.62 307.52 421.286C306.935 420.937 306.288 420.763 305.578 420.763C304.868 420.763 304.22 420.93 303.635 421.265C303.05 421.599 302.584 422.086 302.236 422.727C301.888 423.367 301.713 424.119 301.713 424.983C301.713 425.86 301.888 426.626 302.236 427.28C302.584 427.921 303.05 428.415 303.635 428.763C304.22 429.098 304.868 429.265 305.578 429.265C306.288 429.265 306.935 429.098 307.52 428.763C308.119 428.415 308.593 427.921 308.941 427.28C309.289 426.626 309.463 425.867 309.463 425.004Z" fill="black"/>
<path opacity="0.935644" d="M328.367 419.092C329.258 419.092 330.051 419.28 330.748 419.656C331.444 420.018 331.994 420.568 332.398 421.307C332.802 422.045 333.004 422.943 333.004 424.001V430.748H331.124V424.273C331.124 423.131 330.838 422.26 330.267 421.662C329.71 421.049 328.951 420.743 327.991 420.743C327.002 420.743 326.215 421.063 325.63 421.703C325.045 422.33 324.753 423.242 324.753 424.44V430.748H322.873V424.273C322.873 423.131 322.588 422.26 322.017 421.662C321.46 421.049 320.701 420.743 319.74 420.743C318.751 420.743 317.964 421.063 317.38 421.703C316.795 422.33 316.502 423.242 316.502 424.44V430.748H314.602V419.301H316.502V420.951C316.878 420.353 317.38 419.893 318.006 419.573C318.647 419.253 319.35 419.092 320.116 419.092C321.077 419.092 321.926 419.308 322.664 419.74C323.402 420.172 323.952 420.805 324.314 421.641C324.635 420.833 325.164 420.206 325.902 419.761C326.64 419.315 327.461 419.092 328.367 419.092Z" fill="black"/>
<path opacity="0.935644" d="M335.406 424.983C335.406 423.813 335.642 422.79 336.116 421.912C336.589 421.021 337.237 420.332 338.059 419.844C338.894 419.357 339.82 419.113 340.837 419.113C341.839 419.113 342.709 419.329 343.448 419.761C344.186 420.192 344.736 420.736 345.098 421.39V419.301H347.019V430.748H345.098V428.617C344.722 429.286 344.158 429.843 343.406 430.288C342.668 430.72 341.804 430.936 340.816 430.936C339.799 430.936 338.88 430.685 338.059 430.184C337.237 429.683 336.589 428.979 336.116 428.074C335.642 427.169 335.406 426.139 335.406 424.983ZM345.098 425.004C345.098 424.14 344.924 423.388 344.575 422.748C344.227 422.107 343.754 421.62 343.155 421.286C342.57 420.937 341.923 420.763 341.213 420.763C340.502 420.763 339.855 420.93 339.27 421.265C338.685 421.599 338.219 422.086 337.871 422.727C337.522 423.367 337.348 424.119 337.348 424.983C337.348 425.86 337.522 426.626 337.871 427.28C338.219 427.921 338.685 428.415 339.27 428.763C339.855 429.098 340.502 429.265 341.213 429.265C341.923 429.265 342.57 429.098 343.155 428.763C343.754 428.415 344.227 427.921 344.575 427.28C344.924 426.626 345.098 425.867 345.098 425.004Z" fill="black"/>
<path opacity="0.935644" d="M355.813 419.092C357.206 419.092 358.334 419.517 359.197 420.367C360.061 421.202 360.492 422.414 360.492 424.001V430.748H358.612V424.273C358.612 423.131 358.327 422.26 357.756 421.662C357.185 421.049 356.405 420.743 355.416 420.743C354.414 420.743 353.613 421.056 353.014 421.682C352.429 422.309 352.137 423.221 352.137 424.419V430.748H350.236V419.301H352.137V420.931C352.513 420.346 353.021 419.893 353.662 419.573C354.316 419.253 355.034 419.092 355.813 419.092Z" fill="black"/>
</g>
<defs>
<clipPath id="clip0_11_3">
<rect width="405.202" height="436.137" fill="white"/>
</clipPath>
</defs>
</svg>
