<svg width="823" height="169" viewBox="0 0 823 169" fill="none" xmlns="http://www.w3.org/2000/svg">
<path d="M166.102 165.255C161.713 164.59 156.039 163.062 155.493 162.399C155.32 162.196 155.613 161.186 156.489 158.838C157.167 157.036 157.832 155.493 157.968 155.408C158.106 155.322 159.148 155.186 160.288 155.102C168.505 154.495 177.336 151.186 181.857 147.019C182.537 146.392 183 146.128 183.249 146.225C183.938 146.49 192.686 152.58 192.799 152.874C193.092 153.636 189.097 157.602 185.831 159.795C182.184 162.243 177.539 164.191 173.311 165.048C171.723 165.371 167.635 165.486 166.102 165.255ZM115.416 121.283C113.545 120.108 110.436 118.154 108.507 116.941C95.5632 108.8 88.6188 101.859 85.7222 94.1662C85.0498 92.3821 83.714 85.8477 83.2986 82.3167C82.9486 79.344 82.942 71.1714 83.2876 68.9559C83.5807 67.0676 84.5015 65.6067 87.5917 62.1265C90.2187 59.1678 93.6441 56.395 94.1042 56.855C94.156 56.9067 94.0948 57.3445 93.9832 57.8391C93.5091 59.8833 92.6267 65.2867 92.2973 68.148C91.2352 77.3977 91.3196 85.0014 92.542 90.2512C93.9196 96.1657 99.713 103.744 113.471 117.625C116.095 120.897 122.772 125.896 115.416 121.283ZM172.448 84.5269C172.439 82.4812 171.308 79.0569 170.244 77.8478C169.604 77.1205 170.059 76.8566 173.053 76.2188C191.378 72.3155 198.388 70.3797 204.387 67.5658C209.625 65.109 212.495 62.2244 214.428 57.4757C215.271 55.4055 215.868 53.0747 216.682 48.6721C217.037 46.7512 217.467 45.042 217.634 44.874C217.951 44.5585 235.269 38.4495 235.85 38.4495C236.029 38.4495 236.178 38.5014 236.178 38.5531C236.178 38.8306 232.119 49.1735 230.748 52.3888C225.574 64.5239 219.083 75.0982 215.356 77.4607C211.812 79.7076 201.463 82.0621 191.048 82.991C190.113 83.0772 185.639 83.644 181.107 84.2576C176.575 84.8712 172.773 85.3727 172.659 85.3727C172.539 85.3727 172.449 84.994 172.448 84.5269Z" fill="#F012BE"/>
<path d="M192.219 139.758L186.926 136.104L187.08 135.292C187.361 133.796 187.236 127.92 186.872 125.503C185.589 116.993 181.486 108.523 173.474 97.8454C171.425 95.1147 171.505 95.2665 171.766 94.58C171.887 94.2595 172.083 93.2217 172.202 92.2757C172.323 91.3294 172.471 90.5 172.538 90.4331C172.694 90.278 176.891 92.5132 179.57 94.1692C182.21 95.8015 186.776 99.2139 188.088 100.536C189.527 101.988 192.721 106.001 194.064 108.047C199.281 115.995 201.201 126.035 199.454 136.216C198.97 139.037 197.871 143.412 197.648 143.412C197.579 143.411 195.13 141.768 192.219 139.758ZM144.042 67.5241C143.956 67.369 144.146 51.2017 144.506 27.2284L144.678 16.3467H150.915H157.151L157.082 34.6528C157.013 50.5034 157.048 52.9589 157.333 52.9589C158.198 52.9589 163.809 46.4249 168.428 40.0368C169.735 38.229 172.096 34.9642 173.674 32.7824C181.541 21.9047 186.699 16.2516 193.254 11.3198C195.778 9.42008 196.728 8.92788 201.836 6.87149C209.075 3.95693 216.25 1.70933 221.639 0.66847C225.953 -0.165738 231.423 -0.227711 233.826 0.53066C234.707 0.808154 235.846 1.33726 236.357 1.70783C237.7 2.67992 239.679 5.2323 240.603 7.18235C242.182 10.5171 242.196 13.9274 240.655 19.1839C239.496 23.1262 238.227 27.2047 238.13 27.302C238.078 27.3538 236.174 27.9829 233.888 28.7085C231.603 29.4342 227.26 30.8197 224.237 31.7872C221.213 32.7541 218.681 33.4884 218.61 33.4178C218.541 33.3488 218.599 31.8235 218.748 30.034C218.886 28.2439 218.975 25.6489 218.931 24.2671C218.862 21.9385 218.81 21.6953 218.231 20.9407C217.888 20.4909 217.048 19.8514 216.358 19.5153C215.125 18.912 215.056 18.9055 211.65 19.0193C207.637 19.1571 206.394 19.4502 202.203 21.2784L199.465 22.4724L180.164 42.7625C169.548 53.9219 159.982 63.9557 158.906 65.0603L156.949 67.0686L155.697 66.6636C152.994 65.788 147.987 66.0762 145.289 67.2637C144.155 67.7636 144.184 67.7567 144.065 67.5309L144.042 67.5241Z" fill="#FFC000"/>
<path d="M133.558 168.761C124.471 166.539 115.771 159.953 106.964 148.627C100.402 140.189 94.1586 129.172 91.8682 121.99C90.7785 118.574 90.8408 117.907 92.0839 119.666C95.6454 124.704 107.953 136.837 117.117 144.341C126.291 151.854 132.82 155.649 135.075 154.778C135.825 154.489 137.014 152.68 138.45 149.647C140.906 144.458 142.662 137.578 143.454 130.037C144.019 124.658 143.735 114.956 142.864 109.911C142.709 109.005 142.65 108.219 142.743 108.165C142.83 108.113 143.511 108.32 144.256 108.617C147.191 109.801 150.863 110.4 154.429 110.273L156.47 110.204L156.734 111.793C157.194 114.577 157.718 120.224 157.865 124.001C158.206 132.811 156.475 144.603 153.635 152.809C150.574 161.65 145.762 167.253 140.015 168.667C138.377 169.07 135.015 169.111 133.558 168.761ZM149.901 106.439C147.911 106.17 144.935 105.151 143.256 104.163C142.544 103.744 141.028 102.482 139.888 101.36C137.575 99.0817 136.345 97.1266 135.325 94.1052C134.763 92.4403 134.713 91.9938 134.704 88.6644C134.698 85.1809 134.722 84.9598 135.393 83.0883C136.488 80.0212 137.604 78.2319 139.775 76.0621C142.877 72.9613 146.138 71.3586 150.304 70.8853C158.986 69.8994 166.995 75.4808 169.309 84.1303C169.676 85.5057 169.793 86.6011 169.793 88.6644C169.793 90.7275 169.673 91.8228 169.309 93.1984C167.931 98.3495 164.559 102.481 159.865 104.77C156.713 106.307 153.239 106.889 149.901 106.439Z" fill="#00B0F0"/>
<path d="M88.9959 166.165C86.6365 165.865 82.8995 165.105 81.2763 164.592C73.6668 162.189 67.4488 157.622 64.1639 152.026C61.6136 147.681 59.5232 142.252 58.5685 137.494C57.8426 133.879 57.8426 128.042 58.568 124.663C59.5214 120.225 60.6653 117.416 63.9997 111.333C66.4791 106.81 70.9002 101.717 75.3226 98.291C76.6692 97.2482 78.4998 95.752 79.3915 94.9662C80.2829 94.1802 81.0743 93.5371 81.149 93.5371C81.549 93.5371 81.0456 94.7179 78.6417 99.3898C73.1983 109.978 72.0543 112.301 71.1394 114.62C67.004 125.108 67.43 133.448 72.5186 141.597C75.8043 146.86 80.3584 151.042 84.4592 152.561C88.3998 154.021 92.8769 154.157 101.129 153.066C103.795 152.715 105.348 152.599 105.605 152.735C106.193 153.049 111.674 159.48 111.674 159.857C111.674 160.637 106.683 163.512 103.431 164.603C100.056 165.736 97.7696 166.106 93.6452 166.187C91.5248 166.221 89.4324 166.217 88.9959 166.165ZM123.58 144.782C121.834 143.306 120.373 141.94 120.333 141.744C120.299 141.548 120.926 140.573 121.738 139.575C127.352 132.681 129.674 124.651 128.929 114.706C128.565 109.847 128.244 108.122 126.05 99.2509C123.397 88.5191 120.949 81.5969 117.216 74.2684C113.586 67.1422 110.815 64.103 106.847 62.8981C104.11 62.0673 102.498 62.5755 99.4137 65.2393C98.162 66.3199 97.4943 66.7595 97.3379 66.6026C96.9259 66.1907 96.6932 62.5605 96.938 60.3938C97.5432 55.0466 100.017 51.2435 104.19 49.2439C105.538 48.5975 105.857 48.5372 107.932 48.5406C109.879 48.5428 110.36 48.6268 111.333 49.1008C114.724 50.7675 119.475 57.6786 125.283 69.3946C130.7 80.3217 133.601 88.5248 135.346 97.846C137.106 107.246 137.619 112.557 137.466 119.768C137.38 124.037 137.254 125.492 136.766 128.124C135.54 134.747 133.73 139.423 130.76 143.639C129.394 145.578 127.574 147.497 127.118 147.479C126.918 147.472 125.326 146.256 123.58 144.782ZM59.8539 90.6751C43.5557 89.9426 29.6792 87.6199 24.9603 84.8361C23.3396 83.8795 19.7431 80.1974 18.4031 78.1218C13.8034 70.9976 10.0895 60.2966 4.94759 39.3563C3.76824 34.556 2.30725 28.9449 1.69948 26.8876C0.0821924 21.411 -0.00765057 20.9399 0.000970359 17.8195C0.0078671 15.329 0.087332 14.7858 0.60976 13.3313C1.39771 11.1675 2.92025 8.90649 4.73185 7.2124C6.33362 5.71461 7.65968 5.09481 10.2104 4.65082C12.1307 4.31645 17.373 4.49565 20.1679 4.99376C27.7915 6.34849 37.8979 9.70016 47.7218 14.1313C56.71 18.1855 76.5507 28.3371 85.582 33.503C92.8229 37.6449 94.3912 38.8268 93.1348 39.1927C92.9158 39.2616 90.7853 39.8801 88.3981 40.5781C86.0112 41.2779 83.7968 41.8505 83.4778 41.8505C83.1589 41.8505 80.3158 40.8902 77.1595 39.7171C74.0032 38.5433 68.2568 36.4109 64.3901 34.9769C45.2301 27.8718 41.065 26.3113 38.4368 25.2518C36.8713 24.621 34.9255 23.9106 34.1148 23.6728C32.2434 23.1264 28.5974 22.9126 26.4294 23.2194C24.5976 23.4796 23.5939 24.0867 22.5799 25.5474L22.0437 26.3196L22.1816 31.6468C22.5919 48.4145 26.4561 61.0351 33.5455 68.7555C39.0132 74.7101 49.4586 77.4021 73.8098 79.1323C79.6015 79.5442 80.0751 79.6132 80.2513 80.0717C80.3203 80.2647 80.3892 81.7384 80.3892 83.3434C80.3892 84.9497 80.5099 87.0358 80.6444 87.981C80.7823 88.9255 80.8337 89.7662 80.7475 89.8478C80.6613 89.9339 79.8613 90.134 78.9611 90.3012C77.349 90.6028 64.0384 90.8647 59.8539 90.6751ZM106.54 44.096C103.909 43.6565 100.501 42.0265 98.3424 40.1752C96.3351 38.4534 94.9233 36.6332 93.7531 34.2557C92.2737 31.2505 91.8678 29.4935 91.8678 26.0944C91.8678 22.673 92.275 20.9247 93.7799 17.8811C95.6588 14.0806 99.1025 10.817 102.899 9.23852C111.492 5.66642 121.412 9.29007 125.707 17.5729C127.305 20.6558 127.662 22.2078 127.662 26.0944C127.662 29.029 127.593 29.7267 127.131 31.1871C125.027 37.8842 119.93 42.6106 113.294 44.0165C111.649 44.3647 108.381 44.3959 106.54 44.096Z" fill="#7030A0"/>
<path d="M291.442 65.7763C288.508 65.7763 285.867 65.2737 283.52 64.2683C281.173 63.2204 279.329 61.7539 277.987 59.8689C276.646 57.9833 275.975 55.7838 275.975 53.2698H283.646C283.814 55.1553 284.547 56.7055 285.846 57.9206C287.188 59.1358 289.053 59.7432 291.442 59.7432C293.915 59.7432 295.843 59.1564 297.226 57.9832C298.61 56.7681 299.301 55.218 299.301 53.3324C299.301 51.866 298.861 50.6718 297.98 49.7499C297.143 48.8284 296.074 48.1164 294.774 47.6133C293.517 47.11 291.756 46.5651 289.493 45.9791C286.642 45.2253 284.316 44.4709 282.514 43.7162C280.753 42.9199 279.244 41.7049 277.987 40.0711C276.729 38.4369 276.101 36.2582 276.101 33.5346C276.101 31.0206 276.729 28.821 277.987 26.9355C279.244 25.0499 281.005 23.6043 283.268 22.5987C285.532 21.5933 288.151 21.0907 291.128 21.0907C295.361 21.0907 298.819 22.1592 301.501 24.2961C304.226 26.3912 305.735 29.2824 306.028 32.9697H298.106C297.981 31.3775 297.227 30.0157 295.843 28.8843C294.46 27.7525 292.636 27.1864 290.373 27.1864C288.319 27.1864 286.643 27.7102 285.343 28.7581C284.044 29.806 283.394 31.3148 283.394 33.2837C283.394 34.6245 283.792 35.7349 284.589 36.6148C285.427 37.4525 286.475 38.1226 287.733 38.6257C288.99 39.129 290.708 39.6734 292.888 40.2594C295.78 41.0557 298.128 41.852 299.93 42.6479C301.774 43.4442 303.325 44.6803 304.582 46.3562C305.882 47.9902 306.531 50.1903 306.531 52.9558C306.531 55.1764 305.924 57.271 304.708 59.2403C303.534 61.2097 301.795 62.8023 299.49 64.0174C297.226 65.1906 294.544 65.7763 291.442 65.7763Z" fill="black"/>
<path d="M346.771 47.1727C346.771 48.4717 346.686 49.6452 346.519 50.6926H320.049C320.258 53.4581 321.285 55.6789 323.13 57.3549C324.974 59.031 327.238 59.8691 329.92 59.8691C333.776 59.8691 336.501 58.2558 338.094 55.0294H345.827C344.779 58.2139 342.871 60.8325 340.105 62.8857C337.381 64.8968 333.986 65.9022 329.92 65.9022C326.609 65.9022 323.633 65.169 320.992 63.7025C318.393 62.1942 316.339 60.0991 314.83 57.4174C313.363 54.6939 312.63 51.5516 312.63 47.9901C312.63 44.4285 313.343 41.307 314.768 38.6253C316.235 35.9019 318.268 33.8068 320.867 32.3403C323.507 30.8737 326.525 30.1406 329.92 30.1406C333.19 30.1406 336.103 30.8526 338.659 32.2772C341.216 33.7019 343.208 35.713 344.633 38.3108C346.058 40.8667 346.771 43.8207 346.771 47.1727ZM339.289 44.9104C339.243 42.2707 338.3 40.1545 336.46 38.5622C334.615 36.97 332.33 36.1742 329.606 36.1742C327.133 36.1742 325.016 36.97 323.256 38.5622C321.496 40.1125 320.447 42.2288 320.112 44.9104H339.289Z" fill="black"/>
<path d="M357.459 26.1177C356.159 26.1177 355.07 25.6776 354.189 24.7974C353.309 23.9173 352.869 22.8281 352.869 21.5295C352.869 20.2305 353.309 19.1408 354.189 18.2609C355.07 17.3808 356.159 16.9407 357.459 16.9407C358.716 16.9407 359.785 17.3808 360.665 18.2609C361.546 19.1411 361.986 20.2308 361.986 21.5295C361.986 22.8283 361.546 23.9175 360.665 24.7974C359.785 25.6776 358.716 26.1177 357.459 26.1177ZM360.98 72.1246C360.98 75.5185 360.12 77.9695 358.402 79.4779C356.725 81.0282 354.273 81.8033 351.046 81.8033H347.336V75.7697H349.788C351.256 75.7697 352.282 75.4768 352.869 74.8908C353.498 74.3461 353.812 73.4246 353.812 72.1256V30.707H360.98V72.1246Z" fill="black"/>
<path d="M385.437 65.9022C382.168 65.9022 379.213 65.169 376.572 63.7025C373.932 62.1942 371.857 60.0991 370.348 57.4174C368.839 54.6939 368.084 51.5516 368.084 47.9901C368.084 44.4705 368.86 41.3489 370.411 38.6253C371.962 35.9019 374.079 33.8068 376.761 32.3403C379.444 30.8737 382.441 30.1406 385.752 30.1406C389.063 30.1406 392.06 30.8737 394.743 32.3403C397.425 33.8068 399.542 35.9019 401.093 38.6253C402.644 41.3489 403.419 44.4705 403.419 47.9901C403.419 51.5097 402.623 54.6314 401.03 57.3549C399.437 60.0784 397.258 62.1942 394.491 63.7025C391.767 65.169 388.749 65.9022 385.437 65.9022ZM385.437 59.6803C387.282 59.6803 389 59.2402 390.593 58.36C392.228 57.4799 393.548 56.1599 394.554 54.4004C395.56 52.6405 396.063 50.5036 396.063 47.9896C396.063 45.4756 395.58 43.3598 394.616 41.6419C393.652 39.882 392.373 38.5621 390.781 37.6822C389.188 36.8021 387.47 36.362 385.626 36.362C383.781 36.362 382.062 36.8021 380.47 37.6822C378.919 38.5624 377.682 39.8824 376.76 41.6419C375.838 43.3598 375.377 45.4756 375.377 47.9896C375.377 51.7187 376.32 54.6101 378.207 56.6632C380.135 58.6745 382.545 59.6803 385.437 59.6803Z" fill="black"/>
<path d="M417.691 18.8267V65.3365H410.524V18.8267H417.691Z" fill="black"/>
<path d="M430.769 26.1177C429.469 26.1177 428.38 25.6776 427.499 24.7974C426.619 23.9173 426.179 22.8281 426.179 21.5295C426.179 20.2305 426.619 19.1408 427.499 18.2609C428.38 17.3808 429.469 16.9407 430.769 16.9407C432.026 16.9407 433.095 17.3808 433.976 18.2609C434.856 19.1411 435.296 20.2308 435.296 21.5295C435.296 22.8283 434.856 23.9175 433.976 24.7974C433.095 25.6776 432.026 26.1177 430.769 26.1177ZM434.29 30.7059V65.3367H427.122V30.7059H434.29Z" fill="black"/>
<path d="M484.148 65.3367L467.235 45.7903V65.3367H460.068V21.6557H467.235V41.5793L484.211 21.6557H493.202L474.214 43.5275L493.516 65.3367H484.148Z" fill="black"/>
<path d="M497.478 47.8644C497.478 44.3866 498.19 41.307 499.615 38.6253C501.082 35.9438 503.052 33.8694 505.525 32.4029C508.04 30.8944 510.806 30.1406 513.824 30.1406C516.549 30.1406 518.917 30.685 520.929 31.7743C522.983 32.8222 524.618 34.1422 525.833 35.734V30.706H533.064V65.3368H525.833V60.1831C524.618 61.8172 522.962 63.1785 520.866 64.268C518.771 65.3573 516.382 65.9022 513.699 65.9022C510.723 65.9022 507.998 65.1478 505.525 63.6394C503.052 62.0891 501.082 59.9522 499.615 57.2286C498.19 54.4632 497.478 51.3421 497.478 47.8644ZM525.833 47.9848C525.833 45.5965 525.331 43.5228 524.325 41.7629C523.36 40.0031 522.082 38.662 520.489 37.7401C518.897 36.8186 517.178 36.3578 515.334 36.3578C513.49 36.3578 511.771 36.8186 510.178 37.7401C508.586 38.6203 507.286 39.9401 506.28 41.6998C505.316 43.4176 504.834 45.4707 504.834 47.8591C504.834 50.2474 505.316 52.3425 506.28 54.1442C507.286 55.9459 508.586 57.329 510.178 58.2927C511.813 59.2142 513.532 59.675 515.334 59.675C517.178 59.675 518.897 59.2142 520.489 58.2927C522.082 57.3712 523.361 56.03 524.325 54.2699C525.331 52.4682 525.833 50.3731 525.833 47.9848Z" fill="black"/>
<path d="M555.069 65.9022C552.345 65.9022 549.893 65.4203 547.713 64.4563C545.576 63.4508 543.878 62.1102 542.621 60.434C541.363 58.7162 540.692 56.8094 540.608 54.7144H548.028C548.153 56.1809 548.844 57.4171 550.102 58.4226C551.402 59.3867 553.016 59.8686 554.944 59.8686C556.956 59.8686 558.506 59.492 559.596 58.7382C560.728 57.9419 561.295 56.9361 561.295 55.7211C561.295 54.4222 560.666 53.4583 559.408 52.8297C558.193 52.2012 556.243 51.5099 553.561 50.7558C550.962 50.0434 548.846 49.3521 547.211 48.6818C545.576 48.0119 544.151 46.9853 542.936 45.6021C541.762 44.2193 541.175 42.397 541.175 40.1344C541.175 38.2908 541.72 36.6143 542.809 35.1059C543.899 33.5556 545.45 32.3408 547.462 31.4608C549.516 30.5806 551.863 30.1406 554.504 30.1406C558.444 30.1406 561.608 31.1464 563.998 33.1577C566.429 35.1269 567.728 37.8294 567.896 41.2653H560.728C560.603 39.715 559.974 38.4789 558.842 37.5571C557.71 36.6355 556.18 36.1748 554.253 36.1748C552.367 36.1748 550.92 36.5306 549.914 37.243C548.908 37.9555 548.405 38.8986 548.405 40.0718C548.405 40.9934 548.741 41.7685 549.411 42.3972C550.082 43.0258 550.899 43.5284 551.863 43.9052C552.827 44.2408 554.252 44.6808 556.138 45.2255C558.653 45.8965 560.707 46.5878 562.3 47.2995C563.934 47.9694 565.339 48.9753 566.512 50.3166C567.686 51.6574 568.293 53.4378 568.335 55.6585C568.335 57.6278 567.791 59.3875 566.701 60.9379C565.611 62.4882 564.061 63.7036 562.049 64.5835C560.079 65.4637 557.752 65.9022 555.069 65.9022Z" fill="black"/>
<path d="M618.005 30.1406C620.73 30.1406 623.161 30.7061 625.299 31.838C627.478 32.9698 629.176 34.6457 630.392 36.8659C631.649 39.0867 632.277 41.7684 632.277 44.9109V65.3373H625.173V45.9792C625.173 42.8786 624.398 40.5115 622.847 38.8773C621.296 37.2013 619.179 36.3636 616.496 36.3636C613.814 36.3636 611.676 37.2013 610.083 38.8773C608.532 40.5115 607.757 42.8786 607.757 45.9792V65.3373H600.652V45.9792C600.652 42.8786 599.877 40.5115 598.326 38.8773C596.775 37.2013 594.658 36.3636 591.976 36.3636C589.293 36.3636 587.155 37.2013 585.563 38.8773C584.012 40.5115 583.236 42.8786 583.236 45.9792V65.3373H576.069V30.7065H583.236V34.6662C584.41 33.2416 585.898 32.1312 587.701 31.3351C589.503 30.5388 591.431 30.1411 593.485 30.1411C596.251 30.1411 598.724 30.7274 600.904 31.9005C603.084 33.0738 604.76 34.771 605.934 36.9916C606.982 34.8967 608.617 33.2414 610.838 32.0263C613.059 30.7692 615.448 30.1406 618.005 30.1406Z" fill="black"/>
<path d="M639.005 47.8644C639.005 44.3866 639.717 41.307 641.142 38.6253C642.609 35.9438 644.579 33.8694 647.052 32.4029C649.567 30.8944 652.334 30.1406 655.352 30.1406C658.076 30.1406 660.444 30.685 662.456 31.7743C664.51 32.8222 666.145 34.1422 667.361 35.734V30.706H674.591V65.3368H667.361V60.1831C666.145 61.8172 664.489 63.1785 662.394 64.268C660.298 65.3573 657.909 65.9022 655.226 65.9022C652.25 65.9022 649.525 65.1478 647.052 63.6394C644.579 62.0891 642.609 59.9522 641.142 57.2286C639.717 54.4632 639.005 51.3421 639.005 47.8644ZM667.361 47.9848C667.361 45.5965 666.857 43.5228 665.852 41.7629C664.887 40.0031 663.609 38.662 662.016 37.7401C660.424 36.8186 658.705 36.3578 656.861 36.3578C655.016 36.3578 653.298 36.8186 651.705 37.7401C650.112 38.6203 648.813 39.9401 647.807 41.6998C646.843 43.4176 646.361 45.4707 646.361 47.8591C646.361 50.2474 646.843 52.3425 647.807 54.1442C648.813 55.9459 650.112 57.329 651.705 58.2927C653.34 59.2142 655.058 59.675 656.861 59.675C658.705 59.675 660.424 59.2142 662.016 58.2927C663.609 57.3712 664.888 56.03 665.852 54.2699C666.857 52.4682 667.361 50.3731 667.361 47.9848Z" fill="black"/>
<path d="M691.19 35.734C692.238 33.9742 693.621 32.6123 695.339 31.6486C697.099 30.6432 699.174 30.1406 701.564 30.1406V37.5571H699.741C696.932 37.5571 694.795 38.2695 693.327 39.6942C691.902 41.1187 691.19 43.591 691.19 47.1106V65.3373H684.022V30.7065H691.19V35.734Z" fill="black"/>
<path d="M705.776 47.8644C705.776 44.3866 706.489 41.307 707.914 38.6253C709.381 35.9438 711.351 33.8694 713.824 32.4029C716.339 30.8944 719.105 30.1406 722.123 30.1406C724.848 30.1406 727.216 30.685 729.228 31.7743C731.282 32.8222 732.917 34.1422 734.132 35.734V30.706H741.362V65.3368H734.132V60.1831C732.917 61.8172 731.261 63.1785 729.165 64.268C727.069 65.3573 724.68 65.9022 721.997 65.9022C719.021 65.9022 716.297 65.1478 713.824 63.6394C711.351 62.0891 709.381 59.9522 707.914 57.2286C706.489 54.4632 705.776 51.3421 705.776 47.8644ZM734.132 47.9848C734.132 45.5965 733.629 43.5228 732.624 41.7629C731.659 40.0031 730.381 38.662 728.788 37.7401C727.196 36.8186 725.477 36.3578 723.633 36.3578C721.789 36.3578 720.07 36.8186 718.477 37.7401C716.884 38.6203 715.585 39.9401 714.579 41.6998C713.614 43.4176 713.132 45.4707 713.132 47.8591C713.132 50.2474 713.614 52.3425 714.579 54.1442C715.585 55.9459 716.884 57.329 718.477 58.2927C720.112 59.2142 721.83 59.675 723.633 59.675C725.477 59.675 727.196 59.2142 728.788 58.2927C730.381 57.3712 731.66 56.03 732.624 54.2699C733.629 52.4682 734.132 50.3731 734.132 47.9848Z" fill="black"/>
<path d="M768.272 30.1406C770.997 30.1406 773.427 30.7061 775.565 31.838C777.745 32.9698 779.442 34.6457 780.658 36.8659C781.873 39.0867 782.481 41.7684 782.481 44.9109V65.3373H775.377V45.9792C775.377 42.8786 774.601 40.5115 773.05 38.8773C771.499 37.2013 769.382 36.3636 766.7 36.3636C764.017 36.3636 761.88 37.2013 760.287 38.8773C758.736 40.5115 757.961 42.8786 757.961 45.9792V65.3373H750.793V30.7065H757.961V34.6662C759.134 33.2416 760.622 32.1312 762.425 31.3351C764.269 30.5388 766.218 30.1406 768.272 30.1406Z" fill="black"/>
<path d="M282.721 112.905C281.423 112.905 280.257 112.679 279.223 112.229C278.208 111.759 277.408 111.12 276.824 110.311C276.242 109.484 275.94 108.535 275.921 107.463H278.658C278.75 108.384 279.126 109.165 279.787 109.804C280.464 110.424 281.442 110.734 282.721 110.734C283.943 110.734 284.903 110.433 285.598 109.831C286.312 109.21 286.669 108.421 286.669 107.462C286.669 106.709 286.462 106.099 286.048 105.629C285.634 105.159 285.117 104.803 284.497 104.559C283.876 104.315 283.039 104.052 281.986 103.769C280.688 103.43 279.644 103.092 278.854 102.754C278.084 102.415 277.416 101.889 276.851 101.175C276.305 100.442 276.032 99.4646 276.032 98.2423C276.032 97.1703 276.305 96.2208 276.851 95.3941C277.397 94.5668 278.159 93.9279 279.136 93.4768C280.133 93.0264 281.271 92.8009 282.55 92.8009C284.393 92.8009 285.898 93.2617 287.064 94.1832C288.249 95.1048 288.917 96.3268 289.067 97.8494H286.246C286.154 97.0968 285.759 96.4388 285.061 95.8754C284.365 95.2928 283.443 95.0017 282.297 95.0017C281.224 95.0017 280.35 95.2833 279.673 95.8475C278.996 96.3933 278.658 97.1644 278.658 98.1603C278.658 98.8738 278.855 99.4565 279.251 99.9087C279.664 100.359 280.163 100.707 280.745 100.952C281.348 101.178 282.185 101.441 283.256 101.741C284.554 102.098 285.598 102.455 286.388 102.811C287.177 103.15 287.854 103.686 288.419 104.42C288.983 105.133 289.265 106.111 289.265 107.352C289.265 108.311 289.012 109.213 288.505 110.06C287.997 110.905 287.245 111.592 286.248 112.118C285.252 112.645 284.075 112.905 282.721 112.905Z" fill="black"/>
<path d="M307.152 104.389C307.152 104.878 307.123 105.395 307.066 105.94H294.709C294.801 107.463 295.319 108.656 296.261 109.521C297.22 110.367 298.376 110.79 299.731 110.79C300.84 110.79 301.762 110.537 302.496 110.03C303.249 109.504 303.775 108.808 304.075 107.943H306.839C306.426 109.428 305.598 110.641 304.357 111.581C303.116 112.502 301.573 112.963 299.73 112.963C298.263 112.963 296.947 112.634 295.781 111.975C294.634 111.317 293.731 110.386 293.072 109.183C292.415 107.961 292.086 106.552 292.086 104.953C292.086 103.355 292.406 101.955 293.045 100.751C293.684 99.548 294.577 98.627 295.725 97.9878C296.891 97.3293 298.227 96.9999 299.731 96.9999C301.198 96.9999 302.496 97.3194 303.624 97.9583C304.753 98.5972 305.618 99.4809 306.22 100.609C306.84 101.718 307.152 102.978 307.152 104.389ZM304.5 103.853C304.5 102.875 304.284 102.038 303.852 101.343C303.42 100.629 302.827 100.093 302.074 99.7346C301.341 99.3588 300.523 99.1707 299.62 99.1707C298.323 99.1707 297.213 99.5842 296.291 100.412C295.389 101.239 294.872 102.386 294.739 103.853H304.5Z" fill="black"/>
<path d="M319.17 112.707L313.104 105.882V112.707H310.537V91.8384H313.104V104.106L319.057 97.253H322.64L315.361 104.952L322.668 112.707H319.17Z" fill="black"/>
<path d="M331.808 112.962C330.36 112.962 329.044 112.632 327.859 111.974C326.693 111.315 325.771 110.385 325.094 109.182C324.435 107.96 324.106 106.55 324.106 104.952C324.106 103.372 324.444 101.981 325.121 100.778C325.818 99.556 326.759 98.6253 327.943 97.9861C329.128 97.3277 330.454 96.9983 331.921 96.9983C333.388 96.9983 334.714 97.3277 335.899 97.9861C337.084 98.6249 338.015 99.546 338.692 100.75C339.388 101.953 339.736 103.354 339.736 104.952C339.736 106.55 339.38 107.96 338.666 109.182C337.969 110.385 337.019 111.316 335.816 111.974C334.612 112.632 333.275 112.962 331.808 112.962ZM331.808 110.706C332.73 110.706 333.595 110.489 334.404 110.055C335.213 109.623 335.862 108.975 336.35 108.11C336.857 107.245 337.111 106.192 337.111 104.951C337.111 103.71 336.866 102.657 336.376 101.793C335.887 100.927 335.247 100.288 334.458 99.8749C333.668 99.4429 332.813 99.2269 331.891 99.2269C330.951 99.2269 330.085 99.4429 329.295 99.8749C328.524 100.289 327.904 100.928 327.434 101.793C326.963 102.658 326.728 103.711 326.728 104.951C326.728 106.211 326.953 107.273 327.404 108.138C327.874 109.003 328.495 109.652 329.266 110.084C330.036 110.498 330.886 110.706 331.808 110.706Z" fill="black"/>
<path d="M345.689 91.8384V112.707H343.122V91.8384H345.689Z" fill="black"/>
<path d="M349.103 104.924C349.103 103.345 349.422 101.963 350.061 100.779C350.7 99.5754 351.575 98.6447 352.685 97.9867C353.814 97.3282 355.064 96.9988 356.437 96.9988C357.791 96.9988 358.967 97.2905 359.963 97.873C360.96 98.4556 361.703 99.1888 362.192 100.073V97.2524H364.787V112.707H362.192V109.83C361.684 110.732 360.922 111.484 359.907 112.086C358.91 112.669 357.744 112.96 356.409 112.96C355.036 112.96 353.794 112.622 352.685 111.945C351.576 111.268 350.701 110.319 350.061 109.097C349.422 107.875 349.103 106.484 349.103 104.924ZM362.193 104.959C362.193 103.793 361.957 102.778 361.487 101.913C361.017 101.047 360.378 100.389 359.569 99.9386C358.78 99.4686 357.905 99.2338 356.945 99.2338C355.987 99.2338 355.112 99.4593 354.322 99.9097C353.532 100.36 352.902 101.018 352.432 101.883C351.962 102.748 351.727 103.764 351.727 104.929C351.727 106.114 351.962 107.147 352.432 108.031C352.902 108.896 353.532 109.564 354.322 110.033C355.111 110.485 355.986 110.711 356.945 110.711C357.905 110.711 358.78 110.485 359.569 110.033C360.379 109.563 361.018 108.896 361.487 108.031C361.957 107.147 362.193 106.124 362.193 104.959Z" fill="black"/>
<path d="M376.806 96.9715C377.972 96.9715 379.026 97.2248 379.966 97.7316C380.906 98.2211 381.64 98.9639 382.167 99.9597C382.713 100.956 382.986 102.168 382.986 103.597V112.707H380.447V103.964C380.447 102.422 380.062 101.247 379.292 100.439C378.52 99.6115 377.467 99.198 376.132 99.198C374.778 99.198 373.696 99.621 372.887 100.467C372.098 101.312 371.703 102.544 371.703 104.161V112.706H369.136V91.8368H371.703V99.451C372.211 98.6616 372.907 98.0506 373.791 97.618C374.693 97.1859 375.696 96.9715 376.806 96.9715Z" fill="black"/>
<path d="M404.623 93.0509V107.575C404.623 109.192 404.124 110.489 403.128 111.466C402.131 112.425 400.815 112.904 399.178 112.904C397.523 112.904 396.198 112.415 395.201 111.437C394.204 110.441 393.706 109.087 393.706 107.376H396.273C396.296 108.335 396.541 109.115 397.008 109.717C397.498 110.319 398.221 110.621 399.18 110.621C400.139 110.621 400.853 110.338 401.324 109.774C401.794 109.192 402.029 108.458 402.029 107.575V93.0509H404.623Z" fill="black"/>
<path d="M423.778 104.389C423.778 104.878 423.749 105.395 423.692 105.94H411.335C411.427 107.463 411.945 108.656 412.887 109.521C413.846 110.367 415.002 110.79 416.357 110.79C417.466 110.79 418.388 110.537 419.122 110.03C419.875 109.504 420.401 108.808 420.701 107.943H423.465C423.052 109.428 422.224 110.641 420.983 111.581C419.742 112.502 418.199 112.963 416.356 112.963C414.889 112.963 413.573 112.634 412.407 111.975C411.26 111.317 410.357 110.386 409.698 109.183C409.041 107.961 408.712 106.552 408.712 104.953C408.712 103.355 409.031 101.955 409.671 100.751C410.31 99.548 411.203 98.627 412.351 97.9878C413.517 97.3293 414.853 96.9999 416.357 96.9999C417.824 96.9999 419.122 97.3194 420.25 97.9583C421.379 98.5972 422.244 99.4809 422.846 100.609C423.466 101.718 423.778 102.978 423.778 104.389ZM421.126 103.853C421.126 102.875 420.91 102.038 420.478 101.343C420.046 100.629 419.454 100.093 418.701 99.7346C417.968 99.3588 417.149 99.1707 416.246 99.1707C414.949 99.1707 413.839 99.5842 412.917 100.412C412.015 101.239 411.498 102.386 411.365 103.853H421.126Z" fill="black"/>
<path d="M429.731 91.8384V112.707H427.164V91.8384H429.731Z" fill="black"/>
<path d="M433.144 104.924C433.144 103.345 433.464 101.963 434.103 100.779C434.742 99.5754 435.616 98.6447 436.726 97.9867C437.855 97.3282 439.106 96.9988 440.478 96.9988C441.833 96.9988 443.008 97.2905 444.005 97.873C445.002 98.4556 445.744 99.1888 446.234 100.073V97.2524H448.829V112.707H446.234V109.83C445.726 110.732 444.964 111.484 443.949 112.086C442.952 112.669 441.786 112.96 440.45 112.96C439.077 112.96 437.836 112.622 436.726 111.945C435.617 111.268 434.743 110.319 434.103 109.097C433.464 107.875 433.144 106.484 433.144 104.924ZM446.234 104.959C446.234 103.793 445.999 102.778 445.529 101.913C445.059 101.047 444.42 100.389 443.611 99.9386C442.821 99.4686 441.946 99.2338 440.987 99.2338C440.028 99.2338 439.154 99.4593 438.363 99.9097C437.574 100.36 436.944 101.018 436.473 101.883C436.003 102.748 435.768 103.764 435.768 104.929C435.768 106.114 436.003 107.147 436.473 108.031C436.943 108.896 437.573 109.564 438.363 110.033C439.153 110.485 440.027 110.711 440.987 110.711C441.947 110.711 442.821 110.485 443.611 110.033C444.42 109.563 445.059 108.896 445.529 108.031C445.999 107.147 446.234 106.124 446.234 104.959Z" fill="black"/>
<path d="M460.707 96.971C462.587 96.971 464.111 97.5443 465.277 98.691C466.443 99.8194 467.026 101.455 467.026 103.599V112.707H464.487V103.965C464.487 102.423 464.101 101.248 463.33 100.439C462.559 99.6121 461.506 99.1986 460.17 99.1986C458.816 99.1986 457.735 99.6216 456.926 100.467C456.137 101.313 455.742 102.545 455.742 104.162V112.707H453.175V97.2524H455.742V99.4521C456.25 98.6627 456.937 98.0516 457.802 97.619C458.685 97.187 459.653 96.971 460.707 96.971Z" fill="black"/>
<path d="M477.605 96.9998C478.941 96.9998 480.107 97.2909 481.104 97.8735C482.119 98.4561 482.871 99.1892 483.361 100.073V97.2534H485.956V113.046C485.956 114.456 485.655 115.706 485.052 116.797C484.45 117.905 483.585 118.77 482.457 119.391C481.348 120.012 480.05 120.322 478.564 120.322C476.533 120.322 474.84 119.842 473.486 118.883C472.132 117.924 471.333 116.618 471.088 114.963H473.627C473.91 115.903 474.493 116.655 475.376 117.219C476.26 117.802 477.323 118.093 478.564 118.093C479.975 118.093 481.122 117.651 482.006 116.768C482.909 115.884 483.361 114.643 483.361 113.045V109.801C482.853 110.703 482.101 111.456 481.104 112.058C480.107 112.66 478.941 112.961 477.606 112.961C476.233 112.961 474.982 112.623 473.854 111.946C472.745 111.269 471.87 110.32 471.23 109.098C470.591 107.876 470.271 106.484 470.271 104.923C470.271 103.344 470.591 101.963 471.23 100.778C471.869 99.5749 472.744 98.6441 473.854 97.9861C474.983 97.3277 476.233 96.9998 477.605 96.9998ZM483.361 104.952C483.361 103.787 483.126 102.771 482.656 101.906C482.186 101.041 481.546 100.383 480.737 99.9322C479.948 99.4623 479.073 99.2274 478.114 99.2274C477.154 99.2274 476.279 99.4529 475.49 99.9033C474.7 100.354 474.07 101.012 473.6 101.877C473.129 102.743 472.895 103.758 472.895 104.923C472.895 106.107 473.129 107.142 473.6 108.025C474.07 108.89 474.7 109.558 475.49 110.028C476.279 110.479 477.154 110.705 478.114 110.705C479.072 110.705 479.947 110.479 480.737 110.028C481.546 109.558 482.186 108.89 482.656 108.025C483.126 107.142 483.361 106.118 483.361 104.952Z" fill="black"/>
<path d="M500.401 110.621H507.284V112.707H497.833V93.0509H500.401V110.621Z" fill="black"/>
<path d="M509.062 104.924C509.062 103.345 509.381 101.963 510.02 100.779C510.659 99.5754 511.534 98.6447 512.644 97.9867C513.773 97.3282 515.023 96.9988 516.396 96.9988C517.75 96.9988 518.925 97.2905 519.922 97.873C520.918 98.4556 521.662 99.1888 522.151 100.073V97.2524H524.746V112.707H522.151V109.83C521.644 110.732 520.882 111.484 519.866 112.086C518.869 112.669 517.703 112.96 516.368 112.96C514.995 112.96 513.753 112.622 512.644 111.945C511.535 111.268 510.66 110.319 510.02 109.097C509.381 107.875 509.062 106.484 509.062 104.924ZM522.151 104.959C522.151 103.793 521.916 102.778 521.446 101.913C520.976 101.047 520.337 100.389 519.528 99.9386C518.738 99.4686 517.864 99.2338 516.904 99.2338C515.944 99.2338 515.07 99.4593 514.281 99.9097C513.491 100.36 512.861 101.018 512.391 101.883C511.921 102.748 511.686 103.764 511.686 104.929C511.686 106.114 511.921 107.147 512.391 108.031C512.861 108.896 513.491 109.564 514.281 110.033C515.07 110.485 515.945 110.711 516.904 110.711C517.863 110.711 518.737 110.485 519.528 110.033C520.337 109.563 520.977 108.896 521.446 108.031C521.916 107.147 522.151 106.124 522.151 104.959Z" fill="black"/>
<path d="M536.765 96.9715C537.931 96.9715 538.984 97.2248 539.925 97.7316C540.865 98.2211 541.599 98.9639 542.125 99.9597C542.671 100.956 542.944 102.168 542.944 103.597V112.707H540.405V103.964C540.405 102.422 540.019 101.247 539.248 100.439C538.478 99.6115 537.425 99.198 536.089 99.198C534.735 99.198 533.653 99.621 532.844 100.467C532.055 101.312 531.66 102.544 531.66 104.161V112.706H529.092V91.8368H531.66V99.451C532.167 98.6616 532.863 98.0506 533.747 97.618C534.65 97.1859 535.655 96.9715 536.765 96.9715Z" fill="black"/>
<path d="M548.473 94.7434C547.984 94.7434 547.569 94.5742 547.231 94.2353C546.892 93.8963 546.723 93.4823 546.723 92.9939C546.723 92.5044 546.892 92.0909 547.231 91.7531C547.571 91.4141 547.985 91.2445 548.473 91.2445C548.943 91.2445 549.338 91.4141 549.658 91.7531C549.997 92.0921 550.166 92.5056 550.166 92.9939C550.166 93.4834 549.997 93.8974 549.658 94.2353C549.338 94.5742 548.943 94.7434 548.473 94.7434ZM549.714 97.2534V112.708H547.147V97.2534H549.714Z" fill="black"/>
<path d="M556.654 99.7634C557.106 98.8798 557.745 98.1935 558.572 97.7047C559.418 97.2152 560.443 96.9704 561.647 96.9704V99.6214H560.972C558.094 99.6214 556.656 101.182 556.656 104.303V112.707H554.088V97.2524H556.656L556.654 99.7634Z" fill="black"/>
<path d="M563.651 104.924C563.651 103.345 563.97 101.963 564.61 100.779C565.249 99.5754 566.123 98.6447 567.233 97.9867C568.362 97.3282 569.613 96.9988 570.985 96.9988C572.339 96.9988 573.515 97.2905 574.512 97.873C575.508 98.4556 576.251 99.1888 576.74 100.073V97.2524H579.336V112.707H576.74V109.83C576.232 110.732 575.471 111.484 574.455 112.086C573.459 112.669 572.292 112.96 570.957 112.96C569.584 112.96 568.343 112.622 567.233 111.945C566.124 111.268 565.249 110.319 564.61 109.097C563.97 107.875 563.651 106.484 563.651 104.924ZM576.741 104.959C576.741 103.793 576.506 102.778 576.036 101.913C575.565 101.047 574.926 100.389 574.117 99.9386C573.327 99.4686 572.453 99.2338 571.494 99.2338C570.534 99.2338 569.66 99.4593 568.87 99.9097C568.08 100.36 567.45 101.018 566.98 101.883C566.51 102.748 566.274 103.764 566.274 104.929C566.274 106.114 566.51 107.147 566.98 108.031C567.45 108.896 568.08 109.564 568.87 110.033C569.66 110.485 570.534 110.711 571.494 110.711C572.452 110.711 573.327 110.485 574.117 110.033C574.926 109.563 575.566 108.896 576.036 108.031C576.506 107.147 576.741 106.124 576.741 104.959Z" fill="black"/>
<path d="M591.214 96.971C593.095 96.971 594.618 97.5443 595.784 98.691C596.95 99.8194 597.533 101.455 597.533 103.599V112.707H594.994V103.965C594.994 102.423 594.608 101.248 593.837 100.439C593.067 99.6121 592.014 99.1986 590.678 99.1986C589.324 99.1986 588.242 99.6216 587.433 100.467C586.644 101.313 586.249 102.545 586.249 104.162V112.707H583.682V97.2524H586.249V99.4521C586.757 98.6627 587.443 98.0516 588.308 97.619C589.192 97.187 590.161 96.971 591.214 96.971Z" fill="black"/>
<path d="M619.933 112.707L611.836 103.74V112.707H609.269V93.0509H611.836V102.16L619.961 93.0509H623.205L614.29 102.893L623.29 112.707H619.933Z" fill="black"/>
<path d="M640.273 104.389C640.273 104.878 640.245 105.395 640.187 105.94H627.831C627.923 107.463 628.44 108.656 629.382 109.521C630.341 110.367 631.497 110.79 632.852 110.79C633.961 110.79 634.883 110.537 635.617 110.03C636.37 109.504 636.896 108.808 637.196 107.943H639.961C639.547 109.428 638.719 110.641 637.478 111.581C636.237 112.502 634.695 112.963 632.851 112.963C631.385 112.963 630.068 112.634 628.902 111.975C627.755 111.317 626.852 110.386 626.194 109.183C625.535 107.961 625.206 106.552 625.206 104.953C625.206 103.355 625.525 101.955 626.164 100.751C626.803 99.548 627.697 98.627 628.845 97.9878C630.011 97.3293 631.346 96.9999 632.85 96.9999C634.317 96.9999 635.615 97.3194 636.744 97.9583C637.872 98.5972 638.738 99.4809 639.339 100.609C639.96 101.718 640.273 102.978 640.273 104.389ZM637.621 103.853C637.621 102.875 637.405 102.038 636.973 101.343C636.541 100.629 635.949 100.093 635.196 99.7346C634.463 99.3588 633.644 99.1707 632.742 99.1707C631.444 99.1707 630.334 99.5842 629.412 100.412C628.51 101.239 627.993 102.386 627.861 103.853H637.621Z" fill="black"/>
<path d="M646.226 91.8384V112.707H643.659V91.8384H646.226Z" fill="black"/>
<path d="M664.31 97.2531V112.707H661.743V110.423C661.253 111.212 660.566 111.833 659.683 112.284C658.818 112.716 657.858 112.932 656.805 112.932C655.602 112.932 654.52 112.688 653.561 112.198C652.602 111.691 651.841 110.939 651.276 109.942C650.73 108.946 650.457 107.733 650.457 106.304V97.2516H652.996V105.966C652.996 107.489 653.381 108.664 654.151 109.491C654.923 110.3 655.976 110.704 657.311 110.704C658.684 110.704 659.766 110.282 660.555 109.436C661.345 108.59 661.74 107.359 661.74 105.742V97.2531H664.31Z" fill="black"/>
<path d="M667.695 104.924C667.695 103.345 668.014 101.963 668.654 100.779C669.293 99.5754 670.167 98.6447 671.277 97.9867C672.406 97.3282 673.657 96.9988 675.029 96.9988C676.383 96.9988 677.559 97.2905 678.556 97.873C679.552 98.4556 680.295 99.1888 680.785 100.073V97.2524H683.38V112.707H680.785V109.83C680.277 110.732 679.515 111.484 678.499 112.086C677.503 112.669 676.336 112.96 675.001 112.96C673.628 112.96 672.387 112.622 671.277 111.945C670.168 111.268 669.293 110.319 668.654 109.097C668.014 107.875 667.695 106.484 667.695 104.924ZM680.785 104.959C680.785 103.793 680.55 102.778 680.08 101.913C679.609 101.047 678.97 100.389 678.161 99.9386C677.371 99.4686 676.497 99.2338 675.538 99.2338C674.578 99.2338 673.703 99.4593 672.914 99.9097C672.124 100.36 671.494 101.018 671.023 101.883C670.553 102.748 670.318 103.764 670.318 104.929C670.318 106.114 670.553 107.147 671.023 108.031C671.494 108.896 672.124 109.564 672.914 110.033C673.704 110.485 674.578 110.711 675.538 110.711C676.496 110.711 677.371 110.485 678.161 110.033C678.97 109.563 679.61 108.896 680.08 108.031C680.55 107.147 680.785 106.124 680.785 104.959Z" fill="black"/>
<path d="M690.292 99.7634C690.744 98.8798 691.384 98.1935 692.211 97.7047C693.057 97.2152 694.082 96.9704 695.286 96.9704V99.6214H694.61C691.732 99.6214 690.294 101.182 690.294 104.303V112.707H687.726V97.2524H690.294L690.292 99.7634Z" fill="black"/>
<path d="M704.624 96.9998C705.959 96.9998 707.125 97.2909 708.122 97.8735C709.138 98.4561 709.89 99.1892 710.378 100.073V97.2534H712.974V113.046C712.974 114.456 712.673 115.706 712.071 116.797C711.468 117.905 710.603 118.77 709.475 119.391C708.366 120.012 707.068 120.322 705.582 120.322C703.551 120.322 701.858 119.842 700.504 118.883C699.149 117.924 698.35 116.618 698.106 114.963H700.645C700.928 115.903 701.511 116.655 702.394 117.219C703.278 117.802 704.34 118.093 705.582 118.093C706.992 118.093 708.14 117.651 709.024 116.768C709.926 115.884 710.377 114.643 710.377 113.045V109.801C709.87 110.703 709.118 111.456 708.121 112.058C707.124 112.66 705.958 112.961 704.622 112.961C703.249 112.961 701.998 112.623 700.87 111.946C699.761 111.269 698.886 110.32 698.246 109.098C697.607 107.876 697.288 106.484 697.288 104.923C697.288 103.344 697.607 101.963 698.246 100.778C698.885 99.5749 699.76 98.6441 700.87 97.9861C701.999 97.3277 703.251 96.9998 704.624 96.9998ZM710.378 104.952C710.378 103.787 710.143 102.771 709.673 101.906C709.203 101.041 708.564 100.383 707.755 99.9322C706.965 99.4623 706.091 99.2274 705.131 99.2274C704.172 99.2274 703.297 99.4529 702.508 99.9033C701.718 100.354 701.088 101.012 700.617 101.877C700.147 102.743 699.912 103.758 699.912 104.923C699.912 106.107 700.147 107.142 700.617 108.025C701.087 108.89 701.718 109.558 702.508 110.028C703.298 110.479 704.172 110.705 705.131 110.705C706.09 110.705 706.964 110.479 707.755 110.028C708.564 109.558 709.204 108.89 709.673 108.025C710.143 107.142 710.378 106.118 710.378 104.952Z" fill="black"/>
<path d="M716.359 104.924C716.359 103.345 716.679 101.963 717.318 100.779C717.957 99.5754 718.831 98.6447 719.942 97.9867C721.07 97.3282 722.321 96.9988 723.694 96.9988C725.048 96.9988 726.223 97.2905 727.22 97.873C728.217 98.4556 728.96 99.1888 729.449 100.073V97.2524H732.044V112.707H729.449V109.83C728.941 110.732 728.179 111.484 727.164 112.086C726.167 112.669 725.001 112.96 723.666 112.96C722.293 112.96 721.051 112.622 719.942 111.945C718.831 111.268 717.957 110.319 717.318 109.097C716.679 107.875 716.359 106.484 716.359 104.924ZM729.449 104.959C729.449 103.793 729.214 102.778 728.744 101.913C728.274 101.047 727.634 100.389 726.826 99.9386C726.036 99.4686 725.162 99.2338 724.202 99.2338C723.243 99.2338 722.369 99.4593 721.579 99.9097C720.789 100.36 720.159 101.018 719.689 101.883C719.218 102.748 718.983 103.764 718.983 104.929C718.983 106.114 719.218 107.147 719.689 108.031C720.159 108.896 720.789 109.564 721.579 110.033C722.368 110.485 723.243 110.711 724.202 110.711C725.162 110.711 726.036 110.485 726.826 110.033C727.635 109.563 728.274 108.896 728.744 108.031C729.214 107.147 729.449 106.124 729.449 104.959Z" fill="black"/>
<path d="M750.157 112.905C748.859 112.905 747.693 112.679 746.659 112.229C745.643 111.759 744.843 111.12 744.261 110.311C743.678 109.484 743.377 108.535 743.357 107.463H746.094C746.186 108.384 746.562 109.165 747.223 109.804C747.9 110.424 748.878 110.734 750.157 110.734C751.379 110.734 752.338 110.433 753.034 109.831C753.748 109.21 754.105 108.421 754.105 107.462C754.105 106.709 753.899 106.099 753.485 105.629C753.071 105.159 752.554 104.803 751.933 104.559C751.312 104.315 750.475 104.052 749.422 103.769C748.124 103.43 747.081 103.092 746.291 102.754C745.52 102.415 744.852 101.889 744.288 101.175C743.742 100.442 743.468 99.4646 743.468 98.2423C743.468 97.1703 743.742 96.2208 744.288 95.3941C744.834 94.5668 745.595 93.9279 746.573 93.4768C747.569 93.0264 748.707 92.8009 749.986 92.8009C751.829 92.8009 753.334 93.2617 754.5 94.1832C755.685 95.1048 756.353 96.3268 756.503 97.8494H753.682C753.59 97.0968 753.195 96.4388 752.498 95.8754C751.801 95.2928 750.88 95.0017 749.733 95.0017C748.661 95.0017 747.786 95.2833 747.109 95.8475C746.432 96.3933 746.094 97.1644 746.094 98.1603C746.094 98.8738 746.291 99.4565 746.687 99.9087C747.1 100.359 747.599 100.707 748.181 100.952C748.784 101.178 749.621 101.441 750.692 101.741C751.99 102.098 753.034 102.455 753.824 102.811C754.613 103.15 755.291 103.686 755.855 104.42C756.42 105.133 756.702 106.111 756.702 107.352C756.702 108.311 756.447 109.213 755.939 110.06C755.433 110.905 754.68 111.592 753.683 112.118C752.686 112.645 751.511 112.905 750.157 112.905Z" fill="black"/>
<path d="M774.588 104.389C774.588 104.878 774.559 105.395 774.502 105.94H762.145C762.237 107.463 762.754 108.656 763.697 109.521C764.655 110.367 765.812 110.79 767.167 110.79C768.276 110.79 769.198 110.537 769.932 110.03C770.684 109.504 771.211 108.808 771.511 107.943H774.276C773.862 109.428 773.034 110.641 771.793 111.581C770.552 112.502 769.01 112.963 767.166 112.963C765.699 112.963 764.383 112.634 763.217 111.975C762.07 111.317 761.167 110.386 760.509 109.183C759.85 107.961 759.521 106.552 759.521 104.953C759.521 103.355 759.84 101.955 760.479 100.751C761.118 99.548 762.012 98.627 763.16 97.9878C764.326 97.3293 765.661 96.9999 767.165 96.9999C768.632 96.9999 769.93 97.3194 771.059 97.9583C772.187 98.5972 773.053 99.4809 773.654 100.609C774.275 101.718 774.588 102.978 774.588 104.389ZM771.936 103.853C771.936 102.875 771.72 102.038 771.288 101.343C770.856 100.629 770.263 100.093 769.511 99.7346C768.777 99.3588 767.959 99.1707 767.056 99.1707C765.758 99.1707 764.649 99.5842 763.727 100.412C762.824 101.239 762.307 102.386 762.176 103.853H771.936Z" fill="black"/>
<path d="M785.647 96.9715C786.813 96.9715 787.867 97.2248 788.807 97.7316C789.747 98.2211 790.481 98.9639 791.007 99.9597C791.553 100.956 791.826 102.168 791.826 103.597V112.707H789.287V103.964C789.287 102.422 788.902 101.247 788.132 100.439C787.362 99.6115 786.309 99.198 784.973 99.198C783.619 99.198 782.537 99.621 781.728 100.467C780.939 101.312 780.544 102.544 780.544 104.161V112.706H777.977V91.8368H780.544V99.451C781.051 98.6616 781.746 98.0506 782.631 97.618C783.533 97.1859 784.537 96.9715 785.647 96.9715Z" fill="black"/>
<path d="M795.069 104.924C795.069 103.345 795.389 101.963 796.028 100.779C796.667 99.5754 797.542 98.6447 798.652 97.9867C799.781 97.3282 801.031 96.9988 802.404 96.9988C803.758 96.9988 804.933 97.2905 805.93 97.873C806.927 98.4556 807.67 99.1888 808.159 100.073V97.2524H810.755V112.707H808.159V109.83C807.651 110.732 806.889 111.484 805.874 112.086C804.877 112.669 803.711 112.96 802.376 112.96C801.003 112.96 799.762 112.622 798.652 111.945C797.543 111.268 796.668 110.319 796.028 109.097C795.389 107.875 795.069 106.484 795.069 104.924ZM808.16 104.959C808.16 103.793 807.925 102.778 807.455 101.913C806.984 101.047 806.345 100.389 805.536 99.9386C804.746 99.4686 803.872 99.2338 802.913 99.2338C801.953 99.2338 801.078 99.4593 800.289 99.9097C799.499 100.36 798.869 101.018 798.398 101.883C797.928 102.748 797.693 103.764 797.693 104.929C797.693 106.114 797.928 107.147 798.398 108.031C798.869 108.896 799.498 109.564 800.289 110.033C801.078 110.485 801.953 110.711 802.913 110.711C803.871 110.711 804.746 110.485 805.536 110.033C806.345 109.563 806.985 108.896 807.455 108.031C807.925 107.147 808.16 106.124 808.16 104.959Z" fill="black"/>
<path d="M818.231 99.3684V108.477C818.231 109.23 818.391 109.766 818.711 110.085C819.03 110.386 819.585 110.537 820.375 110.537H822.265V112.709H819.952C818.522 112.709 817.45 112.379 816.736 111.721C816.022 111.062 815.665 109.981 815.665 108.477V99.3689H813.662V97.2539H815.665V93.3621H818.232V97.2539H822.266V99.3689L818.231 99.3684Z" fill="black"/>
<path d="M289.633 130.879C289.633 132.514 289.068 133.877 287.94 134.968C286.83 136.04 285.129 136.576 282.834 136.576H279.053V144.783H276.486V125.126H282.834C285.053 125.126 286.736 125.662 287.883 126.734C289.05 127.806 289.633 129.187 289.633 130.879ZM282.834 134.46C284.264 134.46 285.316 134.15 285.993 133.529C286.67 132.909 287.009 132.025 287.009 130.879C287.009 128.453 285.617 127.24 282.834 127.24H279.054V134.46H282.834Z" fill="black"/>
<path d="M306.926 136.463C306.926 136.952 306.897 137.469 306.84 138.014H294.483C294.575 139.537 295.093 140.731 296.035 141.596C296.994 142.441 298.151 142.864 299.505 142.864C300.615 142.864 301.536 142.61 302.27 142.103C303.023 141.576 303.549 140.88 303.849 140.015H306.614C306.2 141.501 305.373 142.713 304.132 143.653C302.89 144.575 301.348 145.036 299.505 145.036C298.038 145.036 296.721 144.707 295.555 144.048C294.408 143.39 293.505 142.459 292.847 141.256C292.188 140.034 291.859 138.624 291.859 137.026C291.859 135.428 292.178 134.027 292.818 132.824C293.457 131.621 294.35 130.699 295.497 130.06C296.664 129.402 297.999 129.073 299.504 129.073C300.971 129.073 302.269 129.392 303.397 130.031C304.526 130.67 305.391 131.554 305.992 132.682C306.613 133.791 306.926 135.052 306.926 136.463ZM304.275 135.927C304.275 134.949 304.058 134.112 303.626 133.417C303.193 132.703 302.6 132.167 301.849 131.809C301.116 131.433 300.297 131.245 299.394 131.245C298.097 131.245 296.987 131.659 296.065 132.486C295.163 133.313 294.646 134.46 294.513 135.926L304.275 135.927Z" fill="black"/>
<path d="M312.879 131.838C313.329 130.954 313.969 130.268 314.797 129.779C315.643 129.29 316.668 129.045 317.872 129.045V131.696H317.196C314.319 131.696 312.88 133.256 312.88 136.377V144.781H310.313V129.327H312.88L312.879 131.838Z" fill="black"/>
<path d="M326.307 145.036C325.122 145.036 324.06 144.838 323.12 144.443C322.179 144.029 321.436 143.465 320.891 142.751C320.345 142.017 320.044 141.181 319.987 140.241H322.639C322.72 141.012 323.077 141.641 323.71 142.13C324.369 142.619 325.224 142.864 326.277 142.864C327.255 142.864 328.026 142.648 328.59 142.216C329.155 141.783 329.437 141.238 329.437 140.58C329.437 139.904 329.136 139.405 328.534 139.086C327.931 138.747 327 138.418 325.741 138.099C324.593 137.799 323.653 137.498 322.92 137.196C322.206 136.876 321.585 136.415 321.058 135.813C320.549 135.193 320.296 134.384 320.296 133.388C320.296 132.599 320.531 131.874 321.001 131.216C321.471 130.559 322.139 130.042 323.004 129.665C323.869 129.27 324.857 129.072 325.966 129.072C327.677 129.072 329.06 129.505 330.113 130.37C331.166 131.235 331.73 132.42 331.806 133.923H329.239C329.182 133.114 328.852 132.466 328.251 131.977C327.668 131.488 326.878 131.243 325.881 131.243C324.959 131.243 324.226 131.44 323.681 131.834C323.135 132.229 322.862 132.747 322.862 133.386C322.862 133.894 323.022 134.316 323.341 134.654C323.68 134.973 324.094 135.237 324.582 135.444C325.09 135.631 325.787 135.847 326.67 136.092C327.78 136.393 328.682 136.694 329.379 136.995C330.075 137.277 330.668 137.71 331.156 138.293C331.664 138.875 331.927 139.637 331.946 140.577C331.946 141.423 331.71 142.184 331.24 142.861C330.77 143.538 330.103 144.074 329.238 144.47C328.392 144.845 327.417 145.036 326.307 145.036Z" fill="black"/>
<path d="M334.602 136.998C334.602 135.419 334.921 134.038 335.56 132.853C336.199 131.65 337.074 130.719 338.184 130.061C339.313 129.403 340.563 129.073 341.936 129.073C343.29 129.073 344.466 129.365 345.462 129.948C346.459 130.53 347.202 131.263 347.691 132.147V129.327H350.286V144.781H347.691V141.905C347.183 142.807 346.421 143.559 345.406 144.161C344.41 144.743 343.243 145.035 341.908 145.035C340.535 145.035 339.293 144.696 338.184 144.019C337.075 143.343 336.2 142.393 335.56 141.171C334.921 139.949 334.602 138.559 334.602 136.998ZM347.692 137.033C347.692 135.868 347.457 134.852 346.987 133.987C346.517 133.122 345.877 132.464 345.068 132.013C344.279 131.543 343.404 131.308 342.445 131.308C341.486 131.308 340.611 131.533 339.821 131.984C339.031 132.434 338.401 133.092 337.931 133.958C337.461 134.823 337.226 135.838 337.226 137.004C337.226 138.188 337.461 139.222 337.931 140.106C338.401 140.971 339.031 141.638 339.821 142.108C340.61 142.559 341.485 142.785 342.445 142.785C343.403 142.785 344.278 142.559 345.068 142.108C345.878 141.638 346.517 140.971 346.987 140.106C347.457 139.222 347.692 138.199 347.692 137.033Z" fill="black"/>
<path d="M357.2 123.913V144.782H354.632V123.913H357.2Z" fill="black"/>
<path d="M362.898 126.818C362.408 126.818 361.994 126.649 361.656 126.31C361.317 125.971 361.147 125.557 361.147 125.068C361.147 124.579 361.317 124.165 361.656 123.828C361.995 123.489 362.409 123.319 362.898 123.319C363.368 123.319 363.762 123.489 364.082 123.828C364.421 124.167 364.591 124.58 364.591 125.068C364.591 125.558 364.421 125.972 364.082 126.31C363.762 126.649 363.368 126.818 362.898 126.818ZM364.139 129.328V144.782H361.572V129.328H364.139Z" fill="black"/>
<path d="M376.045 129.045C377.926 129.045 379.449 129.619 380.615 130.765C381.781 131.894 382.364 133.529 382.364 135.672V144.782H379.825V136.039C379.825 134.497 379.44 133.322 378.67 132.514C377.899 131.686 376.845 131.273 375.51 131.273C374.156 131.273 373.075 131.696 372.266 132.542C371.476 133.387 371.081 134.618 371.081 136.236V144.781H368.514V129.327H371.081V131.526C371.589 130.737 372.276 130.126 373.141 129.693C374.025 129.261 374.992 129.045 376.045 129.045Z" fill="black"/>
<path d="M385.608 136.998C385.608 135.419 385.928 134.038 386.567 132.853C387.206 131.65 388.08 130.719 389.19 130.061C390.319 129.403 391.57 129.073 392.942 129.073C394.297 129.073 395.472 129.365 396.469 129.948C397.465 130.53 398.208 131.263 398.698 132.147V129.327H401.293V144.781H398.698V141.905C398.191 142.807 397.429 143.559 396.412 144.161C395.416 144.743 394.25 145.035 392.914 145.035C391.542 145.035 390.3 144.696 389.19 144.019C388.081 143.343 387.206 142.393 386.567 141.171C385.928 139.949 385.608 138.559 385.608 136.998ZM398.698 137.033C398.698 135.868 398.463 134.852 397.993 133.987C397.523 133.122 396.883 132.464 396.075 132.013C395.285 131.543 394.411 131.308 393.451 131.308C392.491 131.308 391.617 131.533 390.827 131.984C390.037 132.434 389.407 133.092 388.937 133.958C388.467 134.823 388.232 135.838 388.232 137.004C388.232 138.188 388.467 139.222 388.937 140.106C389.407 140.971 390.037 141.638 390.827 142.108C391.617 142.559 392.492 142.785 393.451 142.785C394.41 142.785 395.284 142.559 396.075 142.108C396.884 141.638 397.523 140.971 397.993 140.106C398.463 139.222 398.698 138.199 398.698 137.033Z" fill="black"/>
<path d="M413.171 129.045C415.052 129.045 416.575 129.619 417.741 130.765C418.907 131.894 419.49 133.529 419.49 135.672V144.782H416.951V136.039C416.951 134.497 416.566 133.322 415.796 132.514C415.025 131.686 413.971 131.273 412.636 131.273C411.282 131.273 410.2 131.696 409.392 132.542C408.602 133.387 408.207 134.618 408.207 136.236V144.781H405.64V129.327H408.207V131.526C408.715 130.737 409.402 130.126 410.267 129.693C411.151 129.261 412.118 129.045 413.171 129.045Z" fill="black"/>
<path d="M442.849 140.411H434.272L432.693 144.782H429.985L437.094 125.238H440.056L447.137 144.782H444.429L442.849 140.411ZM442.114 138.324L438.559 128.397L435.005 138.324H442.114Z" fill="black"/>
<path d="M468.832 129.045C470.036 129.045 471.108 129.299 472.048 129.807C472.988 130.297 473.731 131.039 474.276 132.035C474.822 133.031 475.096 134.244 475.096 135.673V144.782H472.556V136.04C472.556 134.498 472.172 133.323 471.401 132.514C470.648 131.687 469.624 131.274 468.326 131.274C466.991 131.274 465.928 131.706 465.138 132.571C464.349 133.417 463.954 134.649 463.954 136.266V144.783H461.415V136.04C461.415 134.498 461.029 133.323 460.258 132.515C459.505 131.688 458.48 131.274 457.183 131.274C455.848 131.274 454.785 131.706 453.995 132.572C453.205 133.417 452.81 134.649 452.81 136.266V144.783H450.243V129.329H452.81V131.557C453.318 130.748 453.996 130.128 454.842 129.696C455.708 129.264 456.657 129.047 457.691 129.047C458.989 129.047 460.136 129.339 461.133 129.921C462.13 130.504 462.873 131.359 463.362 132.488C463.794 131.397 464.509 130.551 465.506 129.95C466.503 129.348 467.609 129.045 468.832 129.045Z" fill="black"/>
<path d="M478.339 136.998C478.339 135.419 478.658 134.038 479.298 132.853C479.937 131.65 480.811 130.719 481.922 130.061C483.05 129.403 484.301 129.073 485.673 129.073C487.027 129.073 488.203 129.365 489.2 129.948C490.196 130.53 490.939 131.263 491.429 132.147V129.327H494.024V144.781H491.429V141.905C490.921 142.807 490.159 143.559 489.143 144.161C488.147 144.743 486.981 145.035 485.645 145.035C484.272 145.035 483.031 144.696 481.922 144.019C480.812 143.343 479.938 142.393 479.298 141.171C478.658 139.949 478.339 138.559 478.339 136.998ZM491.429 137.033C491.429 135.868 491.194 134.852 490.724 133.987C490.254 133.122 489.614 132.464 488.806 132.013C488.016 131.543 487.142 131.308 486.182 131.308C485.223 131.308 484.349 131.533 483.559 131.984C482.769 132.434 482.138 133.092 481.668 133.958C481.198 134.823 480.963 135.838 480.963 137.004C480.963 138.188 481.198 139.222 481.668 140.106C482.138 140.971 482.769 141.638 483.559 142.108C484.348 142.559 485.223 142.785 486.182 142.785C487.141 142.785 488.015 142.559 488.806 142.108C489.615 141.638 490.254 140.971 490.724 140.106C491.194 139.222 491.429 138.199 491.429 137.033Z" fill="black"/>
<path d="M505.902 129.045C507.783 129.045 509.306 129.619 510.472 130.765C511.638 131.894 512.221 133.529 512.221 135.672V144.782H509.682V136.039C509.682 134.497 509.296 133.322 508.525 132.514C507.755 131.686 506.702 131.273 505.366 131.273C504.012 131.273 502.93 131.696 502.121 132.542C501.332 133.387 500.937 134.618 500.937 136.236V144.781H498.37V129.327H500.937V131.526C501.445 130.737 502.131 130.126 502.996 129.693C503.88 129.261 504.849 129.045 505.902 129.045Z" fill="black"/>
<path d="M522.998 136.998C522.998 135.419 523.318 134.037 523.957 132.853C524.596 131.649 525.47 130.719 526.58 130.061C527.709 129.402 528.969 129.073 530.361 129.073C531.565 129.073 532.683 129.355 533.718 129.919C534.752 130.465 535.543 131.189 536.088 132.091V123.912H538.683V144.782H536.088V141.877C535.58 142.798 534.827 143.56 533.831 144.161C532.834 144.743 531.668 145.035 530.332 145.035C528.959 145.035 527.709 144.697 526.58 144.02C525.471 143.343 524.597 142.393 523.957 141.171C523.318 139.949 522.998 138.558 522.998 136.998ZM536.088 137.033C536.088 135.867 535.853 134.852 535.383 133.987C534.913 133.121 534.273 132.464 533.464 132.013C532.675 131.543 531.8 131.308 530.841 131.308C529.881 131.308 529.007 131.533 528.217 131.983C527.428 132.434 526.797 133.092 526.327 133.957C525.857 134.822 525.622 135.838 525.622 137.003C525.622 138.188 525.857 139.222 526.327 140.106C526.797 140.971 527.427 141.638 528.217 142.107C529.007 142.559 529.881 142.785 530.841 142.785C531.799 142.785 532.674 142.559 533.464 142.107C534.274 141.637 534.913 140.97 535.383 140.106C535.853 139.222 536.088 138.198 536.088 137.033Z" fill="black"/>
<path d="M542.069 136.998C542.069 135.419 542.388 134.038 543.028 132.853C543.667 131.65 544.541 130.719 545.651 130.061C546.78 129.403 548.031 129.073 549.403 129.073C550.757 129.073 551.933 129.365 552.93 129.948C553.926 130.53 554.669 131.263 555.158 132.147V129.327H557.754V144.781H555.158V141.905C554.65 142.807 553.889 143.559 552.873 144.161C551.877 144.743 550.71 145.035 549.375 145.035C548.002 145.035 546.761 144.696 545.651 144.019C544.542 143.343 543.667 142.393 543.028 141.171C542.388 139.949 542.069 138.559 542.069 136.998ZM555.159 137.033C555.159 135.868 554.924 134.852 554.454 133.987C553.983 133.122 553.344 132.464 552.535 132.013C551.745 131.543 550.871 131.308 549.912 131.308C548.952 131.308 548.077 131.533 547.288 131.984C546.498 132.434 545.868 133.092 545.397 133.958C544.927 134.823 544.692 135.838 544.692 137.004C544.692 138.188 544.927 139.222 545.397 140.106C545.868 140.971 546.498 141.638 547.288 142.108C548.078 142.559 548.952 142.785 549.912 142.785C550.87 142.785 551.745 142.559 552.535 142.108C553.344 141.638 553.984 140.971 554.454 140.106C554.924 139.222 555.159 138.199 555.159 137.033Z" fill="black"/>
<path d="M569.632 129.045C571.513 129.045 573.036 129.619 574.202 130.765C575.368 131.894 575.951 133.529 575.951 135.672V144.782H573.412V136.039C573.412 134.497 573.027 133.322 572.255 132.514C571.484 131.686 570.43 131.273 569.095 131.273C567.741 131.273 566.66 131.696 565.851 132.542C565.062 133.387 564.667 134.618 564.667 136.236V144.781H562.1V129.327H564.667V131.526C565.175 130.737 565.861 130.126 566.726 129.693C567.61 129.261 568.579 129.045 569.632 129.045Z" fill="black"/>
<path d="M603.147 144.782H600.58L590.255 129.13V144.782H587.688V125.097H590.255L600.58 140.721V125.097H603.147V144.782Z" fill="black"/>
<path d="M620.836 129.328L611.526 152.058H608.874L611.921 144.613L605.686 129.328H608.536L613.388 141.849L618.184 129.328H620.836Z" fill="black"/>
<path d="M622.443 136.998C622.443 135.419 622.763 134.038 623.402 132.853C624.041 131.65 624.916 130.719 626.026 130.061C627.154 129.403 628.405 129.073 629.778 129.073C631.132 129.073 632.308 129.365 633.304 129.948C634.301 130.53 635.043 131.263 635.533 132.147V129.327H638.128V144.781H635.533V141.905C635.025 142.807 634.263 143.559 633.248 144.161C632.251 144.743 631.085 145.035 629.749 145.035C628.376 145.035 627.135 144.696 626.026 144.019C624.916 143.343 624.042 142.393 623.402 141.171C622.763 139.949 622.443 138.559 622.443 136.998ZM635.534 137.033C635.534 135.868 635.299 134.852 634.829 133.987C634.358 133.122 633.719 132.464 632.91 132.013C632.12 131.543 631.246 131.308 630.286 131.308C629.327 131.308 628.453 131.533 627.663 131.984C626.873 132.434 626.243 133.092 625.772 133.958C625.302 134.823 625.067 135.838 625.067 137.004C625.067 138.188 625.302 139.222 625.772 140.106C626.243 140.971 626.873 141.638 627.663 142.108C628.452 142.559 629.327 142.785 630.286 142.785C631.245 142.785 632.12 142.559 632.91 142.108C633.719 141.638 634.359 140.971 634.829 140.106C635.299 139.222 635.534 138.199 635.534 137.033Z" fill="black"/>
<path d="M661.065 129.045C662.269 129.045 663.341 129.299 664.281 129.807C665.222 130.297 665.965 131.039 666.51 132.035C667.056 133.031 667.329 134.244 667.329 135.673V144.782H664.79V136.04C664.79 134.498 664.405 133.323 663.635 132.514C662.882 131.687 661.857 131.274 660.56 131.274C659.224 131.274 658.162 131.706 657.372 132.571C656.582 133.417 656.187 134.649 656.187 136.266V144.783H653.648V136.04C653.648 134.498 653.263 133.323 652.491 132.515C651.738 131.688 650.713 131.274 649.416 131.274C648.081 131.274 647.019 131.706 646.229 132.572C645.439 133.417 645.044 134.649 645.044 136.266V144.783H642.477V129.329H645.044V131.557C645.552 130.748 646.229 130.128 647.075 129.696C647.941 129.264 648.891 129.047 649.925 129.047C651.222 129.047 652.37 129.339 653.366 129.921C654.363 130.504 655.106 131.359 655.595 132.488C656.027 131.397 656.742 130.551 657.739 129.95C658.736 129.348 659.843 129.045 661.065 129.045Z" fill="black"/>
<path d="M670.573 136.998C670.573 135.419 670.892 134.038 671.531 132.853C672.17 131.65 673.045 130.719 674.155 130.061C675.284 129.403 676.534 129.073 677.907 129.073C679.261 129.073 680.437 129.365 681.434 129.948C682.43 130.53 683.173 131.263 683.662 132.147V129.327H686.258V144.781H683.662V141.905C683.155 142.807 682.393 143.559 681.377 144.161C680.38 144.743 679.214 145.035 677.879 145.035C676.506 145.035 675.265 144.696 674.155 144.019C673.046 143.343 672.171 142.393 671.531 141.171C670.892 139.949 670.573 138.559 670.573 136.998ZM683.663 137.033C683.663 135.868 683.428 134.852 682.957 133.987C682.487 133.122 681.848 132.464 681.039 132.013C680.249 131.543 679.375 131.308 678.415 131.308C677.457 131.308 676.582 131.533 675.792 131.984C675.002 132.434 674.372 133.092 673.902 133.958C673.432 134.823 673.197 135.838 673.197 137.004C673.197 138.188 673.432 139.222 673.902 140.106C674.372 140.971 675.002 141.638 675.792 142.108C676.582 142.559 677.456 142.785 678.415 142.785C679.374 142.785 680.249 142.559 681.039 142.108C681.848 141.638 682.488 140.971 682.957 140.106C683.428 139.222 683.663 138.199 683.663 137.033Z" fill="black"/>
<path d="M698.135 129.045C700.015 129.045 701.539 129.619 702.705 130.765C703.871 131.894 704.454 133.529 704.454 135.672V144.782H701.915V136.039C701.915 134.497 701.53 133.322 700.76 132.514C699.989 131.686 698.935 131.273 697.6 131.273C696.246 131.273 695.164 131.696 694.356 132.542C693.566 133.387 693.171 134.618 693.171 136.236V144.781H690.604V129.327H693.171V131.526C693.678 130.737 694.365 130.126 695.231 129.693C696.115 129.261 697.081 129.045 698.135 129.045Z" fill="black"/>
</svg>
